<mxfile host="Electron" modified="2024-04-29T06:06:45.662Z" agent="Mozilla/5.0 (Macintosh; Intel Mac OS X 10_15_7) AppleWebKit/537.36 (KHTML, like Gecko) draw.io/24.2.5 Chrome/120.0.6099.109 Electron/28.1.0 Safari/537.36" etag="OvRC52iGHD2ysQHLlkoV" version="24.2.5" type="device" pages="7">
  <diagram id="5AV2yx2kL_ojxTBK8A9z" name="Page-2">
    <mxGraphModel dx="979" dy="1912" grid="0" gridSize="10" guides="1" tooltips="1" connect="1" arrows="1" fold="1" page="1" pageScale="1" pageWidth="827" pageHeight="1169" math="0" shadow="0">
      <root>
        <mxCell id="0" />
        <mxCell id="1" parent="0" />
        <object placeholders="1" c4Name="nginx-reverse-proxy" c4Type="SystemScopeBoundary" c4Application="Software System" label="&lt;font style=&quot;font-size: 16px&quot;&gt;&lt;b&gt;&lt;div style=&quot;text-align: left&quot;&gt;%c4Name%&lt;/div&gt;&lt;/b&gt;&lt;/font&gt;&lt;div style=&quot;text-align: left&quot;&gt;[%c4Application%]&lt;/div&gt;" id="ebQpPg_UTsu2diB9N8m8-11">
          <mxCell style="rounded=1;fontSize=11;whiteSpace=wrap;html=1;dashed=1;arcSize=20;fillColor=#d5e8d4;strokeColor=#82b366;labelBackgroundColor=none;align=left;verticalAlign=bottom;labelBorderColor=none;spacingTop=0;spacing=10;dashPattern=8 4;metaEdit=1;rotatable=0;perimeter=rectanglePerimeter;noLabel=0;labelPadding=0;allowArrows=0;connectable=0;expand=0;recursiveResize=0;editable=1;pointerEvents=0;absoluteArcSize=1;points=[[0.25,0,0],[0.5,0,0],[0.75,0,0],[1,0.25,0],[1,0.5,0],[1,0.75,0],[0.75,1,0],[0.5,1,0],[0.25,1,0],[0,0.75,0],[0,0.5,0],[0,0.25,0]];fontFamily=Comic Sans MS;" parent="1" vertex="1">
            <mxGeometry x="985" y="-970" width="624" height="216" as="geometry" />
          </mxCell>
        </object>
        <object label="&lt;div&gt;&lt;span style=&quot;font-size: 14px&quot;&gt;&lt;b&gt;%name%&lt;/b&gt;&lt;/span&gt;&lt;/div&gt;&lt;div&gt;&lt;span style=&quot;font-size: 8px&quot;&gt;[Software System]&lt;/span&gt;&lt;/div&gt;&lt;div&gt;&lt;span style=&quot;font-size: 8px&quot;&gt;&lt;br&gt;&lt;/span&gt;&lt;/div&gt;&lt;div&gt;&lt;font size=&quot;1&quot;&gt;%description%&lt;/font&gt;&lt;/div&gt;" name="nginx-reverse-proxy" description="[Docker Compose]&#xa;Déploiement" ports="80, 443" placeholders="1" id="Vcw_pxPkx2uI8fqFtCrv-2">
          <mxCell style="rounded=0;whiteSpace=wrap;html=1;fillColor=#d5e8d4;strokeColor=#82b366;resizable=0;rotatable=0;metaEdit=1;shadow=1;glass=0;fontFamily=Comic Sans MS;fontSize=11;imageAspect=1;" parent="1" vertex="1">
            <mxGeometry x="400" y="-760" width="180" height="120" as="geometry" />
          </mxCell>
        </object>
        <object label="&lt;div&gt;&lt;span style=&quot;font-size: 14px&quot;&gt;&lt;b&gt;%name%&lt;/b&gt;&lt;/span&gt;&lt;/div&gt;&lt;div&gt;&lt;span style=&quot;font-size: 8px&quot;&gt;[Software System]&lt;/span&gt;&lt;/div&gt;&lt;div&gt;&lt;span style=&quot;font-size: 8px&quot;&gt;&lt;br&gt;&lt;/span&gt;&lt;/div&gt;&lt;div&gt;&lt;font size=&quot;1&quot;&gt;%description%&lt;/font&gt;&lt;/div&gt;" placeholders="1" name="kestra" description="[Docker Compose]&#xa;Déploiement" id="Vcw_pxPkx2uI8fqFtCrv-3">
          <mxCell style="rounded=0;whiteSpace=wrap;html=1;fillColor=#d80073;fontColor=#ffffff;strokeColor=#A50040;resizable=0;rotatable=0;metaEdit=1;shadow=1;glass=0;fontFamily=Comic Sans MS;fontSize=11;" parent="1" vertex="1">
            <mxGeometry x="155" y="-394" width="180" height="120" as="geometry" />
          </mxCell>
        </object>
        <object label="&lt;div&gt;&lt;span style=&quot;font-size: 14px&quot;&gt;&lt;b&gt;%name%&lt;/b&gt;&lt;/span&gt;&lt;/div&gt;&lt;div&gt;&lt;span style=&quot;font-size: 8px&quot;&gt;[Container: %technology%]&lt;/span&gt;&lt;/div&gt;&lt;div&gt;&lt;span style=&quot;font-size: 8px&quot;&gt;&lt;br&gt;&lt;/span&gt;&lt;/div&gt;&lt;div&gt;&lt;font size=&quot;1&quot;&gt;%description%&lt;/font&gt;&lt;/div&gt;" placeholders="1" name="minio-nr" technology="e.g. Python, Flask" description="[Docker Compose]&#xa;Déploiement" id="Vcw_pxPkx2uI8fqFtCrv-5">
          <mxCell style="rounded=0;whiteSpace=wrap;html=1;fillColor=#647687;fontColor=#ffffff;strokeColor=#314354;resizable=0;rotatable=0;metaEdit=1;shadow=1;glass=0;fontFamily=Comic Sans MS;fontSize=11;" parent="1" vertex="1">
            <mxGeometry x="377" y="-392" width="180" height="120" as="geometry" />
          </mxCell>
        </object>
        <object label="" placeholders="1" instruction="edit data of the lower shape within the group" id="Vcw_pxPkx2uI8fqFtCrv-8">
          <mxCell style="group;resizable=0;rotatable=0;shadow=1;glass=0;fontFamily=Comic Sans MS;fontSize=11;" parent="1" vertex="1" connectable="0">
            <mxGeometry x="240" y="-1030" width="160" height="170" as="geometry" />
          </mxCell>
        </object>
        <object label="&lt;div style=&quot;color: rgb(255 , 255 , 255) ; white-space: normal&quot;&gt;&lt;span style=&quot;font-size: 14px&quot;&gt;&lt;b&gt;%name%&lt;/b&gt;&lt;/span&gt;&lt;/div&gt;&lt;div style=&quot;color: rgb(255 , 255 , 255) ; white-space: normal&quot;&gt;&lt;font style=&quot;font-size: 8px&quot;&gt;[Person]&lt;/font&gt;&lt;/div&gt;&lt;div style=&quot;color: rgb(255 , 255 , 255) ; white-space: normal ; font-size: 8px&quot;&gt;&lt;span style=&quot;font-size: x-small&quot;&gt;&lt;br&gt;&lt;/span&gt;&lt;/div&gt;&lt;div style=&quot;color: rgb(255 , 255 , 255) ; white-space: normal&quot;&gt;&lt;font size=&quot;1&quot;&gt;%description%&lt;/font&gt;&lt;/div&gt;" name="Utilisateur" description="Utilisateur" placeholders="1" id="Vcw_pxPkx2uI8fqFtCrv-9">
          <mxCell style="rounded=1;whiteSpace=wrap;html=1;strokeColor=#00315C;fillColor=#004179;fontColor=#000000;arcSize=31;metaEdit=1;shadow=1;glass=0;fontFamily=Comic Sans MS;fontSize=11;" parent="Vcw_pxPkx2uI8fqFtCrv-8" vertex="1">
            <mxGeometry y="70" width="160" height="100" as="geometry" />
          </mxCell>
        </object>
        <mxCell id="Vcw_pxPkx2uI8fqFtCrv-10" value="" style="ellipse;whiteSpace=wrap;html=1;aspect=fixed;strokeColor=#00315C;fillColor=#004179;fontColor=#000000;shadow=1;glass=0;fontFamily=Comic Sans MS;fontSize=11;" parent="Vcw_pxPkx2uI8fqFtCrv-8" vertex="1">
          <mxGeometry x="40" width="80" height="80" as="geometry" />
        </mxCell>
        <object label="&lt;span style=&quot;font-size: 10px&quot;&gt;&lt;b&gt;%name%&lt;/b&gt;&lt;br&gt;[%technology%]&lt;br&gt;&lt;/span&gt;" placeholders="1" name="kestra.abbaye11.ch&#xa;minio.abbaye11.ch&#xa;passbolt.abbaye11.ch" technology="HTTP[80,443]" id="Vcw_pxPkx2uI8fqFtCrv-11">
          <mxCell style="endArrow=block;html=1;fontSize=10;fontColor=#404040;strokeWidth=1;endFill=1;strokeColor=#828282;elbow=vertical;metaEdit=1;rounded=0;fontFamily=Comic Sans MS;exitX=0.5;exitY=1;exitDx=0;exitDy=0;entryX=0.5;entryY=0;entryDx=0;entryDy=0;" parent="1" source="Vcw_pxPkx2uI8fqFtCrv-9" target="Vcw_pxPkx2uI8fqFtCrv-2" edge="1">
            <mxGeometry x="-0.2308" width="50" height="50" relative="1" as="geometry">
              <mxPoint x="430" y="-610" as="sourcePoint" />
              <mxPoint x="630" y="-610" as="targetPoint" />
              <mxPoint as="offset" />
            </mxGeometry>
          </mxCell>
        </object>
        <object label="&lt;span style=&quot;font-size: 10px&quot;&gt;&lt;b&gt;%name%&lt;/b&gt;&lt;br&gt;&lt;/span&gt;" placeholders="1" name="kestra.abbaye11.ch" id="Vcw_pxPkx2uI8fqFtCrv-12">
          <mxCell style="endArrow=block;html=1;fontSize=10;fontColor=#404040;strokeWidth=1;endFill=1;strokeColor=#828282;elbow=vertical;metaEdit=1;rounded=0;fontFamily=Comic Sans MS;exitX=0.5;exitY=1;exitDx=0;exitDy=0;entryX=0.5;entryY=0;entryDx=0;entryDy=0;" parent="1" source="Vcw_pxPkx2uI8fqFtCrv-2" target="Vcw_pxPkx2uI8fqFtCrv-3" edge="1">
            <mxGeometry width="50" height="50" relative="1" as="geometry">
              <mxPoint x="430" y="-510" as="sourcePoint" />
              <mxPoint x="630" y="-510" as="targetPoint" />
            </mxGeometry>
          </mxCell>
        </object>
        <object label="&lt;div&gt;&lt;span style=&quot;font-size: 14px&quot;&gt;&lt;b&gt;%name%&lt;/b&gt;&lt;/span&gt;&lt;/div&gt;&lt;div&gt;&lt;span style=&quot;font-size: 8px&quot;&gt;[Software System]&lt;/span&gt;&lt;/div&gt;&lt;div&gt;&lt;span style=&quot;font-size: 8px&quot;&gt;&lt;br&gt;&lt;/span&gt;&lt;/div&gt;&lt;div&gt;&lt;font size=&quot;1&quot;&gt;%description%&lt;/font&gt;&lt;/div&gt;" placeholders="1" name="Github.com" description="Github.com" id="Vcw_pxPkx2uI8fqFtCrv-15">
          <mxCell style="rounded=0;whiteSpace=wrap;html=1;fillColor=#ffe6cc;strokeColor=#d79b00;resizable=0;rotatable=0;metaEdit=1;shadow=1;glass=0;fontFamily=Comic Sans MS;fontSize=11;" parent="1" vertex="1">
            <mxGeometry x="80" y="-760" width="180" height="120" as="geometry" />
          </mxCell>
        </object>
        <mxCell id="ebQpPg_UTsu2diB9N8m8-1" value="&lt;h1&gt;Architecture - Vue globale&lt;/h1&gt;&lt;p&gt;Architecture haut-niveau basée sur les déploiement docker compose&lt;/p&gt;" style="text;html=1;spacing=5;spacingTop=-20;whiteSpace=wrap;overflow=hidden;rounded=0;" parent="1" vertex="1">
          <mxGeometry x="20" y="-1150" width="620" height="120" as="geometry" />
        </mxCell>
        <object label="&lt;span style=&quot;font-size: 10px&quot;&gt;&lt;b&gt;%name%&lt;/b&gt;&lt;br&gt;&lt;/span&gt;" placeholders="1" name="minio.abbaye11.ch" id="ebQpPg_UTsu2diB9N8m8-2">
          <mxCell style="endArrow=block;html=1;fontSize=10;fontColor=#404040;strokeWidth=1;endFill=1;strokeColor=#828282;elbow=vertical;metaEdit=1;rounded=0;fontFamily=Comic Sans MS;exitX=0.5;exitY=1;exitDx=0;exitDy=0;entryX=0.5;entryY=0;entryDx=0;entryDy=0;" parent="1" source="Vcw_pxPkx2uI8fqFtCrv-2" target="Vcw_pxPkx2uI8fqFtCrv-5" edge="1">
            <mxGeometry width="50" height="50" relative="1" as="geometry">
              <mxPoint x="330" y="-550" as="sourcePoint" />
              <mxPoint x="220" y="-390" as="targetPoint" />
            </mxGeometry>
          </mxCell>
        </object>
        <mxCell id="ebQpPg_UTsu2diB9N8m8-3" value="&lt;h1&gt;Architecture déploiement - Vue globale&lt;/h1&gt;&lt;p&gt;Architecture haut-niveau basée sur les déploiement docker compose&lt;/p&gt;" style="text;html=1;spacing=5;spacingTop=-20;whiteSpace=wrap;overflow=hidden;rounded=0;" parent="1" vertex="1">
          <mxGeometry x="840" y="-1150" width="620" height="120" as="geometry" />
        </mxCell>
        <mxCell id="ebQpPg_UTsu2diB9N8m8-4" value="" style="endArrow=classic;html=1;rounded=0;entryX=0.5;entryY=0;entryDx=0;entryDy=0;" parent="1" source="Vcw_pxPkx2uI8fqFtCrv-9" target="Vcw_pxPkx2uI8fqFtCrv-15" edge="1">
          <mxGeometry width="50" height="50" relative="1" as="geometry">
            <mxPoint x="740" y="-520" as="sourcePoint" />
            <mxPoint x="790" y="-570" as="targetPoint" />
          </mxGeometry>
        </mxCell>
        <mxCell id="ebQpPg_UTsu2diB9N8m8-5" value="push, tag" style="edgeLabel;html=1;align=center;verticalAlign=middle;resizable=0;points=[];" parent="ebQpPg_UTsu2diB9N8m8-4" vertex="1" connectable="0">
          <mxGeometry x="0.0453" y="-3" relative="1" as="geometry">
            <mxPoint as="offset" />
          </mxGeometry>
        </mxCell>
        <mxCell id="ebQpPg_UTsu2diB9N8m8-6" value="" style="endArrow=classic;html=1;rounded=0;exitX=0.5;exitY=1;exitDx=0;exitDy=0;entryX=0.25;entryY=0;entryDx=0;entryDy=0;dashed=1;dashPattern=8 8;fillColor=#f5f5f5;strokeColor=#A3A3A3;" parent="1" source="Vcw_pxPkx2uI8fqFtCrv-15" target="Vcw_pxPkx2uI8fqFtCrv-3" edge="1">
          <mxGeometry width="50" height="50" relative="1" as="geometry">
            <mxPoint x="600" y="-540" as="sourcePoint" />
            <mxPoint x="720" y="-570" as="targetPoint" />
          </mxGeometry>
        </mxCell>
        <mxCell id="ebQpPg_UTsu2diB9N8m8-7" value="github action" style="edgeLabel;html=1;align=center;verticalAlign=middle;resizable=0;points=[];fontColor=#A3A3A3;" parent="ebQpPg_UTsu2diB9N8m8-6" vertex="1" connectable="0">
          <mxGeometry x="-0.3268" y="-1" relative="1" as="geometry">
            <mxPoint as="offset" />
          </mxGeometry>
        </mxCell>
        <object placeholders="1" c4Name="reverse_proxy" c4Type="Container" c4Technology="nginx:1.25.3-alpine-slim" c4Description="Serveur/Reverse proxy nginx" label="&lt;font style=&quot;font-size: 16px&quot;&gt;&lt;b&gt;%c4Name%&lt;/b&gt;&lt;/font&gt;&lt;div&gt;[%c4Type%: %c4Technology%]&lt;/div&gt;&lt;br&gt;&lt;div&gt;&lt;font style=&quot;font-size: 11px&quot;&gt;&lt;font color=&quot;#E6E6E6&quot;&gt;%c4Description%&lt;/font&gt;&lt;/font&gt;&lt;/div&gt;" id="ebQpPg_UTsu2diB9N8m8-9">
          <mxCell style="rounded=1;whiteSpace=wrap;html=1;fontSize=11;labelBackgroundColor=none;fillColor=#23A2D9;fontColor=#ffffff;align=center;arcSize=10;strokeColor=#0E7DAD;metaEdit=1;resizable=1;points=[[0.25,0,0],[0.5,0,0],[0.75,0,0],[1,0.25,0],[1,0.5,0],[1,0.75,0],[0.75,1,0],[0.5,1,0],[0.25,1,0],[0,0.75,0],[0,0.5,0],[0,0.25,0]];fontFamily=Comic Sans MS;" parent="1" vertex="1">
            <mxGeometry x="1168" y="-952" width="210" height="90" as="geometry" />
          </mxCell>
        </object>
        <object placeholders="1" c4Name="certbot" c4Type="Container" c4Technology="certbot:v2.7.4" c4Description="Container certbot pour la gestion TLS" label="&lt;font style=&quot;font-size: 16px&quot;&gt;&lt;b&gt;%c4Name%&lt;/b&gt;&lt;/font&gt;&lt;div&gt;[%c4Type%: %c4Technology%]&lt;/div&gt;&lt;br&gt;&lt;div&gt;&lt;font style=&quot;font-size: 11px&quot;&gt;&lt;font color=&quot;#E6E6E6&quot;&gt;%c4Description%&lt;/font&gt;&lt;/font&gt;&lt;/div&gt;" id="ebQpPg_UTsu2diB9N8m8-10">
          <mxCell style="rounded=1;whiteSpace=wrap;html=1;fontSize=11;labelBackgroundColor=none;fillColor=#23A2D9;fontColor=#ffffff;align=center;arcSize=10;strokeColor=#0E7DAD;metaEdit=1;resizable=1;points=[[0.25,0,0],[0.5,0,0],[0.75,0,0],[1,0.25,0],[1,0.5,0],[1,0.75,0],[0.75,1,0],[0.5,1,0],[0.25,1,0],[0,0.75,0],[0,0.5,0],[0,0.25,0]];fontFamily=Comic Sans MS;" parent="1" vertex="1">
            <mxGeometry x="1399" y="-896" width="200" height="90" as="geometry" />
          </mxCell>
        </object>
        <mxCell id="ebQpPg_UTsu2diB9N8m8-12" value="./certbot/cont" style="sketch=0;outlineConnect=0;fontColor=#232F3E;gradientColor=none;fillColor=#232F3D;strokeColor=none;dashed=0;verticalLabelPosition=bottom;verticalAlign=top;align=center;html=1;fontSize=12;fontStyle=0;aspect=fixed;pointerEvents=1;shape=mxgraph.aws4.folder;" parent="1" vertex="1">
          <mxGeometry x="1646" y="-829.4100000000001" width="80" height="72.82" as="geometry" />
        </mxCell>
        <mxCell id="ebQpPg_UTsu2diB9N8m8-13" value="./certbot/www&lt;div&gt;&lt;br/&gt;&lt;/div&gt;" style="sketch=0;outlineConnect=0;fontColor=#232F3E;gradientColor=none;fillColor=#232F3D;strokeColor=none;dashed=0;verticalLabelPosition=bottom;verticalAlign=top;align=center;html=1;fontSize=12;fontStyle=0;aspect=fixed;pointerEvents=1;shape=mxgraph.aws4.folder;" parent="1" vertex="1">
          <mxGeometry x="1646" y="-937.9999999999999" width="80" height="72.82" as="geometry" />
        </mxCell>
        <mxCell id="ebQpPg_UTsu2diB9N8m8-14" value="" style="endArrow=classic;html=1;rounded=0;exitX=1;exitY=0.75;exitDx=0;exitDy=0;exitPerimeter=0;fontFamily=Comic Sans MS;" parent="1" source="ebQpPg_UTsu2diB9N8m8-10" target="ebQpPg_UTsu2diB9N8m8-12" edge="1">
          <mxGeometry width="50" height="50" relative="1" as="geometry">
            <mxPoint x="1195" y="-710" as="sourcePoint" />
            <mxPoint x="1245" y="-760" as="targetPoint" />
          </mxGeometry>
        </mxCell>
        <mxCell id="ebQpPg_UTsu2diB9N8m8-15" value="" style="endArrow=classic;html=1;rounded=0;exitX=1;exitY=0.5;exitDx=0;exitDy=0;exitPerimeter=0;fontFamily=Comic Sans MS;" parent="1" source="ebQpPg_UTsu2diB9N8m8-10" target="ebQpPg_UTsu2diB9N8m8-13" edge="1">
          <mxGeometry width="50" height="50" relative="1" as="geometry">
            <mxPoint x="1330" y="-772" as="sourcePoint" />
            <mxPoint x="1445" y="-783" as="targetPoint" />
          </mxGeometry>
        </mxCell>
        <mxCell id="ebQpPg_UTsu2diB9N8m8-16" value="" style="endArrow=classic;html=1;rounded=0;exitX=1;exitY=0.5;exitDx=0;exitDy=0;exitPerimeter=0;fontFamily=Comic Sans MS;" parent="1" source="ebQpPg_UTsu2diB9N8m8-9" target="ebQpPg_UTsu2diB9N8m8-13" edge="1">
          <mxGeometry width="50" height="50" relative="1" as="geometry">
            <mxPoint x="1330" y="-795" as="sourcePoint" />
            <mxPoint x="1445" y="-869" as="targetPoint" />
          </mxGeometry>
        </mxCell>
        <mxCell id="ebQpPg_UTsu2diB9N8m8-17" value="" style="outlineConnect=0;dashed=0;verticalLabelPosition=bottom;verticalAlign=top;align=center;html=1;shape=mxgraph.aws3.certificate;fillColor=#5294CF;gradientColor=none;fontFamily=Comic Sans MS;" parent="1" vertex="1">
          <mxGeometry x="1669.5" y="-913.59" width="33" height="40" as="geometry" />
        </mxCell>
        <object placeholders="1" c4Name="kestra" c4Type="SystemScopeBoundary" c4Application="Software System" label="&lt;font style=&quot;font-size: 16px&quot;&gt;&lt;b&gt;&lt;div style=&quot;text-align: left&quot;&gt;%c4Name%&lt;/div&gt;&lt;/b&gt;&lt;/font&gt;&lt;div style=&quot;text-align: left&quot;&gt;[%c4Application%]&lt;/div&gt;" id="ebQpPg_UTsu2diB9N8m8-18">
          <mxCell style="rounded=1;fontSize=11;whiteSpace=wrap;html=1;dashed=1;arcSize=20;fillColor=#d80073;strokeColor=#A50040;fontColor=#ffffff;labelBackgroundColor=none;align=left;verticalAlign=bottom;labelBorderColor=none;spacingTop=0;spacing=10;dashPattern=8 4;metaEdit=1;rotatable=0;perimeter=rectanglePerimeter;noLabel=0;labelPadding=0;allowArrows=0;connectable=0;expand=0;recursiveResize=0;editable=1;pointerEvents=0;absoluteArcSize=1;points=[[0.25,0,0],[0.5,0,0],[0.75,0,0],[1,0.25,0],[1,0.5,0],[1,0.75,0],[0.75,1,0],[0.5,1,0],[0.25,1,0],[0,0.75,0],[0,0.5,0],[0,0.25,0]];fontFamily=Comic Sans MS;" parent="1" vertex="1">
            <mxGeometry x="834" y="-624" width="399" height="333" as="geometry" />
          </mxCell>
        </object>
        <object placeholders="1" c4Name="kestra" c4Type="Container" c4Technology="kestra_v0.15.6-full" c4Description="Serveur Kestra" label="&lt;font style=&quot;font-size: 16px&quot;&gt;&lt;b&gt;%c4Name%&lt;/b&gt;&lt;/font&gt;&lt;div&gt;[%c4Type%: %c4Technology%]&lt;/div&gt;&lt;br&gt;&lt;div&gt;&lt;font style=&quot;font-size: 11px&quot;&gt;&lt;font color=&quot;#E6E6E6&quot;&gt;%c4Description%&lt;/font&gt;&lt;/font&gt;&lt;/div&gt;" id="ebQpPg_UTsu2diB9N8m8-19">
          <mxCell style="rounded=1;whiteSpace=wrap;html=1;fontSize=11;labelBackgroundColor=none;fillColor=#23A2D9;fontColor=#ffffff;align=center;arcSize=10;strokeColor=#0E7DAD;metaEdit=1;resizable=1;points=[[0.25,0,0],[0.5,0,0],[0.75,0,0],[1,0.25,0],[1,0.5,0],[1,0.75,0],[0.75,1,0],[0.5,1,0],[0.25,1,0],[0,0.75,0],[0,0.5,0],[0,0.25,0]];fontFamily=Comic Sans MS;" parent="1" vertex="1">
            <mxGeometry x="939" y="-605" width="210" height="90" as="geometry" />
          </mxCell>
        </object>
        <object placeholders="1" c4Name="dind" c4Type="Container" c4Technology="docker:dind" c4Description="Docker in Docker" label="&lt;font style=&quot;font-size: 16px&quot;&gt;&lt;b&gt;%c4Name%&lt;/b&gt;&lt;/font&gt;&lt;div&gt;[%c4Type%: %c4Technology%]&lt;/div&gt;&lt;br&gt;&lt;div&gt;&lt;font style=&quot;font-size: 11px&quot;&gt;&lt;font color=&quot;#E6E6E6&quot;&gt;%c4Description%&lt;/font&gt;&lt;/font&gt;&lt;/div&gt;" id="ebQpPg_UTsu2diB9N8m8-20">
          <mxCell style="rounded=1;whiteSpace=wrap;html=1;fontSize=11;labelBackgroundColor=none;fillColor=#23A2D9;fontColor=#ffffff;align=center;arcSize=10;strokeColor=#0E7DAD;metaEdit=1;resizable=1;points=[[0.25,0,0],[0.5,0,0],[0.75,0,0],[1,0.25,0],[1,0.5,0],[1,0.75,0],[0.75,1,0],[0.5,1,0],[0.25,1,0],[0,0.75,0],[0,0.5,0],[0,0.25,0]];fontFamily=Comic Sans MS;" parent="1" vertex="1">
            <mxGeometry x="843" y="-457" width="181" height="77" as="geometry" />
          </mxCell>
        </object>
        <object placeholders="1" c4Name="postgres" c4Type="Container" c4Technology="postgres:16-1-bullseye" c4Description="Postgres" label="&lt;font style=&quot;font-size: 16px&quot;&gt;&lt;b&gt;%c4Name%&lt;/b&gt;&lt;/font&gt;&lt;div&gt;[%c4Type%: %c4Technology%]&lt;/div&gt;&lt;br&gt;&lt;div&gt;&lt;font style=&quot;font-size: 11px&quot;&gt;&lt;font color=&quot;#E6E6E6&quot;&gt;%c4Description%&lt;/font&gt;&lt;/font&gt;&lt;/div&gt;" id="ebQpPg_UTsu2diB9N8m8-21">
          <mxCell style="rounded=1;whiteSpace=wrap;html=1;fontSize=11;labelBackgroundColor=none;fillColor=#23A2D9;fontColor=#ffffff;align=center;arcSize=10;strokeColor=#0E7DAD;metaEdit=1;resizable=1;points=[[0.25,0,0],[0.5,0,0],[0.75,0,0],[1,0.25,0],[1,0.5,0],[1,0.75,0],[0.75,1,0],[0.5,1,0],[0.25,1,0],[0,0.75,0],[0,0.5,0],[0,0.25,0]];fontFamily=Comic Sans MS;" parent="1" vertex="1">
            <mxGeometry x="1038" y="-457" width="183" height="79" as="geometry" />
          </mxCell>
        </object>
        <object placeholders="1" c4Name="minio-nr" c4Type="SystemScopeBoundary" c4Application="Software System" label="&lt;font style=&quot;font-size: 16px&quot;&gt;&lt;b&gt;&lt;div style=&quot;text-align: left&quot;&gt;%c4Name%&lt;/div&gt;&lt;/b&gt;&lt;/font&gt;&lt;div style=&quot;text-align: left&quot;&gt;[%c4Application%]&lt;/div&gt;" id="ebQpPg_UTsu2diB9N8m8-22">
          <mxCell style="rounded=1;fontSize=11;whiteSpace=wrap;html=1;dashed=1;arcSize=20;fillColor=#647687;strokeColor=#314354;fontColor=#ffffff;labelBackgroundColor=none;align=left;verticalAlign=bottom;labelBorderColor=none;spacingTop=0;spacing=10;dashPattern=8 4;metaEdit=1;rotatable=0;perimeter=rectanglePerimeter;noLabel=0;labelPadding=0;allowArrows=0;connectable=0;expand=0;recursiveResize=0;editable=1;pointerEvents=0;absoluteArcSize=1;points=[[0.25,0,0],[0.5,0,0],[0.75,0,0],[1,0.25,0],[1,0.5,0],[1,0.75,0],[0.75,1,0],[0.5,1,0],[0.25,1,0],[0,0.75,0],[0,0.5,0],[0,0.25,0]];fontFamily=Comic Sans MS;" parent="1" vertex="1">
            <mxGeometry x="1242" y="-619" width="260" height="326" as="geometry" />
          </mxCell>
        </object>
        <object placeholders="1" c4Name="minio" c4Type="Container" c4Technology="sebchevre/minio-nr:2023.12.14-debian-11-r0-3" c4Description="Serveur Minio" label="&lt;font style=&quot;font-size: 16px&quot;&gt;&lt;b&gt;%c4Name%&lt;/b&gt;&lt;/font&gt;&lt;div&gt;[%c4Type%: %c4Technology%]&lt;/div&gt;&lt;br&gt;&lt;div&gt;&lt;font style=&quot;font-size: 11px&quot;&gt;&lt;font color=&quot;#E6E6E6&quot;&gt;%c4Description%&lt;/font&gt;&lt;/font&gt;&lt;/div&gt;" id="ebQpPg_UTsu2diB9N8m8-23">
          <mxCell style="rounded=1;whiteSpace=wrap;html=1;fontSize=11;labelBackgroundColor=none;fillColor=#23A2D9;fontColor=#ffffff;align=center;arcSize=10;strokeColor=#0E7DAD;metaEdit=1;resizable=1;points=[[0.25,0,0],[0.5,0,0],[0.75,0,0],[1,0.25,0],[1,0.5,0],[1,0.75,0],[0.75,1,0],[0.5,1,0],[0.25,1,0],[0,0.75,0],[0,0.5,0],[0,0.25,0]];fontFamily=Comic Sans MS;" parent="1" vertex="1">
            <mxGeometry x="1267" y="-589" width="210" height="90" as="geometry" />
          </mxCell>
        </object>
        <object placeholders="1" c4Name="create_kestra_bucker" c4Type="Container" c4Technology="bitnami/minio-client:2023.12.14-debian-11-r0" c4Description="Minio Admin CLient" label="&lt;font style=&quot;font-size: 16px&quot;&gt;&lt;b&gt;%c4Name%&lt;/b&gt;&lt;/font&gt;&lt;div&gt;[%c4Type%: %c4Technology%]&lt;/div&gt;&lt;br&gt;&lt;div&gt;&lt;font style=&quot;font-size: 11px&quot;&gt;&lt;font color=&quot;#E6E6E6&quot;&gt;%c4Description%&lt;/font&gt;&lt;/font&gt;&lt;/div&gt;" id="ebQpPg_UTsu2diB9N8m8-24">
          <mxCell style="rounded=1;whiteSpace=wrap;html=1;fontSize=11;labelBackgroundColor=none;fillColor=#23A2D9;fontColor=#ffffff;align=center;arcSize=10;strokeColor=#0E7DAD;metaEdit=1;resizable=1;points=[[0.25,0,0],[0.5,0,0],[0.75,0,0],[1,0.25,0],[1,0.5,0],[1,0.75,0],[0.75,1,0],[0.5,1,0],[0.25,1,0],[0,0.75,0],[0,0.5,0],[0,0.25,0]];fontFamily=Comic Sans MS;" parent="1" vertex="1">
            <mxGeometry x="1267" y="-479" width="210" height="90" as="geometry" />
          </mxCell>
        </object>
        <object placeholders="1" c4Name="Infomaniak VPS - ov-691881 " c4Type="Container" c4Technology="Virtual Server" c4Description="Ubuntu 23.04 64-bits" label="&lt;font style=&quot;font-size: 16px&quot;&gt;&lt;b&gt;%c4Name%&lt;/b&gt;&lt;/font&gt;&lt;div&gt;[%c4Type%: %c4Technology%]&lt;/div&gt;&lt;br&gt;&lt;div&gt;&lt;font style=&quot;font-size: 11px&quot;&gt;&lt;font color=&quot;#E6E6E6&quot;&gt;%c4Description%&lt;/font&gt;&lt;/font&gt;&lt;/div&gt;" id="85LmdbZgtBXUg3xD-tvl-2">
          <mxCell style="rounded=1;whiteSpace=wrap;html=1;fontSize=11;labelBackgroundColor=none;align=center;arcSize=10;metaEdit=1;resizable=1;points=[[0.25,0,0],[0.5,0,0],[0.75,0,0],[1,0.25,0],[1,0.5,0],[1,0.75,0],[0.75,1,0],[0.5,1,0],[0.25,1,0],[0,0.75,0],[0,0.5,0],[0,0.25,0]];fillColor=#60a917;fontColor=#ffffff;strokeColor=#2D7600;comic=1;fontFamily=Comic Sans MS;verticalAlign=top;" parent="1" vertex="1">
            <mxGeometry x="90" y="490" width="620" height="500" as="geometry" />
          </mxCell>
        </object>
        <mxCell id="85LmdbZgtBXUg3xD-tvl-3" value="Firewall" style="rounded=1;whiteSpace=wrap;html=1;fontStyle=1;fontSize=20;fontFamily=Comic Sans MS;comic=1;" parent="1" vertex="1">
          <mxGeometry x="90" y="360" width="610" height="60" as="geometry" />
        </mxCell>
        <mxCell id="85LmdbZgtBXUg3xD-tvl-4" value="80" style="rounded=1;whiteSpace=wrap;html=1;fontStyle=1;fontSize=20;fontFamily=Comic Sans MS;comic=1;fillColor=#60a917;fontColor=#ffffff;strokeColor=#2D7600;" parent="1" vertex="1">
          <mxGeometry x="440" y="370" width="85" height="40" as="geometry" />
        </mxCell>
        <mxCell id="85LmdbZgtBXUg3xD-tvl-5" value="22" style="rounded=1;whiteSpace=wrap;html=1;fontStyle=1;fontSize=20;fontFamily=Comic Sans MS;comic=1;fillColor=#60a917;fontColor=#ffffff;strokeColor=#2D7600;" parent="1" vertex="1">
          <mxGeometry x="130" y="370" width="85" height="40" as="geometry" />
        </mxCell>
        <mxCell id="85LmdbZgtBXUg3xD-tvl-6" value="443" style="rounded=1;whiteSpace=wrap;html=1;fontStyle=1;fontSize=20;fontFamily=Comic Sans MS;comic=1;fillColor=#60a917;fontColor=#ffffff;strokeColor=#2D7600;" parent="1" vertex="1">
          <mxGeometry x="540" y="370" width="85" height="40" as="geometry" />
        </mxCell>
        <object label="&lt;div&gt;&lt;span style=&quot;font-size: 14px&quot;&gt;&lt;b&gt;%name%&lt;/b&gt;&lt;/span&gt;&lt;/div&gt;&lt;div&gt;&lt;span style=&quot;font-size: 8px&quot;&gt;[Software System]&lt;/span&gt;&lt;/div&gt;&lt;div&gt;&lt;span style=&quot;font-size: 8px&quot;&gt;&lt;br&gt;&lt;/span&gt;&lt;/div&gt;&lt;div&gt;&lt;font size=&quot;1&quot;&gt;%description%&lt;/font&gt;&lt;/div&gt;" name="nginx-reverse-proxy" description="[Docker Compose]&#xa;Déploiement" ports="80, 443" placeholders="1" id="85LmdbZgtBXUg3xD-tvl-7">
          <mxCell style="rounded=0;whiteSpace=wrap;html=1;fillColor=#d5e8d4;strokeColor=#82b366;resizable=0;rotatable=0;metaEdit=1;shadow=1;glass=0;fontFamily=Comic Sans MS;fontSize=11;imageAspect=1;" parent="1" vertex="1">
            <mxGeometry x="445" y="580" width="180" height="120" as="geometry" />
          </mxCell>
        </object>
        <mxCell id="85LmdbZgtBXUg3xD-tvl-8" value="" style="endArrow=classic;html=1;rounded=0;exitX=0.5;exitY=1;exitDx=0;exitDy=0;entryX=0.131;entryY=-0.001;entryDx=0;entryDy=0;entryPerimeter=0;strokeWidth=3;" parent="1" source="85LmdbZgtBXUg3xD-tvl-5" target="85LmdbZgtBXUg3xD-tvl-2" edge="1">
          <mxGeometry width="50" height="50" relative="1" as="geometry">
            <mxPoint x="880" y="460" as="sourcePoint" />
            <mxPoint x="930" y="410" as="targetPoint" />
          </mxGeometry>
        </mxCell>
        <mxCell id="85LmdbZgtBXUg3xD-tvl-9" value="" style="endArrow=classic;html=1;rounded=0;exitX=0.5;exitY=1;exitDx=0;exitDy=0;entryX=0.25;entryY=0;entryDx=0;entryDy=0;strokeWidth=3;" parent="1" target="85LmdbZgtBXUg3xD-tvl-7" edge="1">
          <mxGeometry width="50" height="50" relative="1" as="geometry">
            <mxPoint x="492" y="410" as="sourcePoint" />
            <mxPoint x="490" y="491" as="targetPoint" />
          </mxGeometry>
        </mxCell>
        <mxCell id="85LmdbZgtBXUg3xD-tvl-10" value="" style="endArrow=classic;html=1;rounded=0;exitX=0.5;exitY=1;exitDx=0;exitDy=0;entryX=0.75;entryY=0;entryDx=0;entryDy=0;strokeWidth=3;" parent="1" source="85LmdbZgtBXUg3xD-tvl-6" target="85LmdbZgtBXUg3xD-tvl-7" edge="1">
          <mxGeometry width="50" height="50" relative="1" as="geometry">
            <mxPoint x="502" y="420" as="sourcePoint" />
            <mxPoint x="485" y="590" as="targetPoint" />
          </mxGeometry>
        </mxCell>
        <object label="&lt;div&gt;&lt;span style=&quot;font-size: 14px&quot;&gt;&lt;b&gt;%name%&lt;/b&gt;&lt;/span&gt;&lt;/div&gt;&lt;div&gt;&lt;span style=&quot;font-size: 8px&quot;&gt;[Software System]&lt;/span&gt;&lt;/div&gt;&lt;div&gt;&lt;span style=&quot;font-size: 8px&quot;&gt;&lt;br&gt;&lt;/span&gt;&lt;/div&gt;&lt;div&gt;&lt;font size=&quot;1&quot;&gt;%description%&lt;/font&gt;&lt;/div&gt;" placeholders="1" name="kestra" description="[Docker Compose]&#xa;Déploiement" id="85LmdbZgtBXUg3xD-tvl-11">
          <mxCell style="rounded=0;whiteSpace=wrap;html=1;fillColor=#d80073;fontColor=#ffffff;strokeColor=#A50040;resizable=0;rotatable=0;metaEdit=1;shadow=1;glass=0;fontFamily=Comic Sans MS;fontSize=11;" parent="1" vertex="1">
            <mxGeometry x="160" y="580" width="180" height="120" as="geometry" />
          </mxCell>
        </object>
        <mxCell id="85LmdbZgtBXUg3xD-tvl-12" value="8080" style="rounded=1;whiteSpace=wrap;html=1;fontStyle=1;fontSize=20;fontFamily=Comic Sans MS;comic=1;fillColor=#6d8764;fontColor=#ffffff;strokeColor=#3A5431;" parent="1" vertex="1">
          <mxGeometry x="269" y="560" width="85" height="40" as="geometry" />
        </mxCell>
        <object label="&lt;div&gt;&lt;span style=&quot;font-size: 14px&quot;&gt;&lt;b&gt;%name%&lt;/b&gt;&lt;/span&gt;&lt;/div&gt;&lt;div&gt;&lt;span style=&quot;font-size: 8px&quot;&gt;[Container: %technology%]&lt;/span&gt;&lt;/div&gt;&lt;div&gt;&lt;span style=&quot;font-size: 8px&quot;&gt;&lt;br&gt;&lt;/span&gt;&lt;/div&gt;&lt;div&gt;&lt;font size=&quot;1&quot;&gt;%description%&lt;/font&gt;&lt;/div&gt;" placeholders="1" name="minio-nr" technology="e.g. Python, Flask" description="[Docker Compose]&#xa;Déploiement" id="85LmdbZgtBXUg3xD-tvl-13">
          <mxCell style="rounded=0;whiteSpace=wrap;html=1;fillColor=#647687;fontColor=#ffffff;strokeColor=#314354;resizable=0;rotatable=0;metaEdit=1;shadow=1;glass=0;fontFamily=Comic Sans MS;fontSize=11;" parent="1" vertex="1">
            <mxGeometry x="147.5" y="820" width="180" height="120" as="geometry" />
          </mxCell>
        </object>
        <mxCell id="85LmdbZgtBXUg3xD-tvl-14" value="9001" style="rounded=1;whiteSpace=wrap;html=1;fontStyle=1;fontSize=20;fontFamily=Comic Sans MS;comic=1;fillColor=#6d8764;fontColor=#ffffff;strokeColor=#3A5431;" parent="1" vertex="1">
          <mxGeometry x="287.5" y="800" width="85" height="40" as="geometry" />
        </mxCell>
        <mxCell id="85LmdbZgtBXUg3xD-tvl-15" value="9000" style="rounded=1;whiteSpace=wrap;html=1;fontStyle=1;fontSize=20;fontFamily=Comic Sans MS;comic=1;fillColor=#6d8764;fontColor=#ffffff;strokeColor=#3A5431;" parent="1" vertex="1">
          <mxGeometry x="161.5" y="800" width="85" height="40" as="geometry" />
        </mxCell>
        <mxCell id="85LmdbZgtBXUg3xD-tvl-16" value="" style="endArrow=classic;html=1;rounded=0;exitX=0;exitY=0.5;exitDx=0;exitDy=0;entryX=1;entryY=0.5;entryDx=0;entryDy=0;strokeWidth=3;" parent="1" source="85LmdbZgtBXUg3xD-tvl-7" target="85LmdbZgtBXUg3xD-tvl-12" edge="1">
          <mxGeometry width="50" height="50" relative="1" as="geometry">
            <mxPoint x="593" y="420" as="sourcePoint" />
            <mxPoint x="590" y="590" as="targetPoint" />
          </mxGeometry>
        </mxCell>
        <mxCell id="85LmdbZgtBXUg3xD-tvl-17" value="" style="endArrow=classic;html=1;rounded=0;exitX=0.25;exitY=1;exitDx=0;exitDy=0;entryX=0.5;entryY=0;entryDx=0;entryDy=0;strokeWidth=3;" parent="1" source="85LmdbZgtBXUg3xD-tvl-7" target="85LmdbZgtBXUg3xD-tvl-14" edge="1">
          <mxGeometry width="50" height="50" relative="1" as="geometry">
            <mxPoint x="603" y="430" as="sourcePoint" />
            <mxPoint x="600" y="600" as="targetPoint" />
          </mxGeometry>
        </mxCell>
        <mxCell id="85LmdbZgtBXUg3xD-tvl-18" value="" style="endArrow=classic;html=1;rounded=0;exitX=0.25;exitY=1;exitDx=0;exitDy=0;entryX=0.5;entryY=0;entryDx=0;entryDy=0;strokeWidth=3;" parent="1" source="85LmdbZgtBXUg3xD-tvl-11" target="85LmdbZgtBXUg3xD-tvl-15" edge="1">
          <mxGeometry width="50" height="50" relative="1" as="geometry">
            <mxPoint x="545" y="710" as="sourcePoint" />
            <mxPoint x="383" y="830" as="targetPoint" />
          </mxGeometry>
        </mxCell>
        <mxCell id="85LmdbZgtBXUg3xD-tvl-21" value="" style="endArrow=classic;html=1;rounded=0;exitX=0.5;exitY=1;exitDx=0;exitDy=0;entryX=0.5;entryY=0;entryDx=0;entryDy=0;strokeWidth=3;entryPerimeter=0;" parent="1" source="85LmdbZgtBXUg3xD-tvl-20" target="85LmdbZgtBXUg3xD-tvl-2" edge="1">
          <mxGeometry width="50" height="50" relative="1" as="geometry">
            <mxPoint x="593" y="420" as="sourcePoint" />
            <mxPoint x="590" y="590" as="targetPoint" />
          </mxGeometry>
        </mxCell>
        <mxCell id="85LmdbZgtBXUg3xD-tvl-20" value="kestra.abbaye11.ch : 128.65.199.31&lt;br&gt;minio.abbaye11.ch : 128.65.199.31&lt;div&gt;passbolt.abbaye11.ch : 128.65.199.31&lt;/div&gt;" style="rounded=1;whiteSpace=wrap;html=1;fontStyle=1;fontSize=20;fontFamily=Comic Sans MS;comic=1;" parent="1" vertex="1">
          <mxGeometry x="95" y="190" width="610" height="100" as="geometry" />
        </mxCell>
        <mxCell id="85LmdbZgtBXUg3xD-tvl-23" value="" style="endArrow=classic;html=1;rounded=0;exitX=0.5;exitY=1;exitDx=0;exitDy=0;exitPerimeter=0;entryX=0.5;entryY=0;entryDx=0;entryDy=0;entryPerimeter=0;fontFamily=Comic Sans MS;" parent="1" source="ebQpPg_UTsu2diB9N8m8-9" target="ebQpPg_UTsu2diB9N8m8-19" edge="1">
          <mxGeometry width="50" height="50" relative="1" as="geometry">
            <mxPoint x="1043" y="-624" as="sourcePoint" />
            <mxPoint x="1093" y="-674" as="targetPoint" />
          </mxGeometry>
        </mxCell>
        <mxCell id="85LmdbZgtBXUg3xD-tvl-24" value="http://kestra" style="edgeLabel;html=1;align=center;verticalAlign=middle;resizable=0;points=[];fontFamily=Comic Sans MS;" parent="85LmdbZgtBXUg3xD-tvl-23" vertex="1" connectable="0">
          <mxGeometry x="0.1226" relative="1" as="geometry">
            <mxPoint as="offset" />
          </mxGeometry>
        </mxCell>
        <mxCell id="85LmdbZgtBXUg3xD-tvl-25" value="" style="endArrow=classic;html=1;rounded=0;exitX=0.5;exitY=1;exitDx=0;exitDy=0;exitPerimeter=0;entryX=0.5;entryY=0;entryDx=0;entryDy=0;entryPerimeter=0;fontFamily=Comic Sans MS;" parent="1" source="ebQpPg_UTsu2diB9N8m8-9" target="ebQpPg_UTsu2diB9N8m8-23" edge="1">
          <mxGeometry width="50" height="50" relative="1" as="geometry">
            <mxPoint x="1162" y="-861" as="sourcePoint" />
            <mxPoint x="1025" y="-599" as="targetPoint" />
          </mxGeometry>
        </mxCell>
        <mxCell id="85LmdbZgtBXUg3xD-tvl-26" value="http://minio" style="edgeLabel;html=1;align=center;verticalAlign=middle;resizable=0;points=[];fontFamily=Comic Sans MS;" parent="85LmdbZgtBXUg3xD-tvl-25" vertex="1" connectable="0">
          <mxGeometry x="0.1226" relative="1" as="geometry">
            <mxPoint as="offset" />
          </mxGeometry>
        </mxCell>
        <mxCell id="85LmdbZgtBXUg3xD-tvl-27" value="" style="endArrow=classic;html=1;rounded=0;exitX=0.25;exitY=1;exitDx=0;exitDy=0;exitPerimeter=0;entryX=0.5;entryY=0;entryDx=0;entryDy=0;entryPerimeter=0;fontFamily=Comic Sans MS;" parent="1" source="ebQpPg_UTsu2diB9N8m8-19" target="ebQpPg_UTsu2diB9N8m8-20" edge="1">
          <mxGeometry width="50" height="50" relative="1" as="geometry">
            <mxPoint x="1106" y="-856" as="sourcePoint" />
            <mxPoint x="1054" y="-595" as="targetPoint" />
          </mxGeometry>
        </mxCell>
        <mxCell id="85LmdbZgtBXUg3xD-tvl-29" value="" style="endArrow=classic;html=1;rounded=0;exitX=0.75;exitY=1;exitDx=0;exitDy=0;exitPerimeter=0;entryX=0.5;entryY=0;entryDx=0;entryDy=0;entryPerimeter=0;fontFamily=Comic Sans MS;" parent="1" source="ebQpPg_UTsu2diB9N8m8-19" target="ebQpPg_UTsu2diB9N8m8-21" edge="1">
          <mxGeometry width="50" height="50" relative="1" as="geometry">
            <mxPoint x="1002" y="-505" as="sourcePoint" />
            <mxPoint x="944" y="-447" as="targetPoint" />
          </mxGeometry>
        </mxCell>
        <mxCell id="85LmdbZgtBXUg3xD-tvl-30" value="" style="endArrow=classic;html=1;rounded=0;exitX=1;exitY=0.5;exitDx=0;exitDy=0;exitPerimeter=0;entryX=0;entryY=0.5;entryDx=0;entryDy=0;entryPerimeter=0;fontFamily=Comic Sans MS;" parent="1" source="ebQpPg_UTsu2diB9N8m8-19" target="ebQpPg_UTsu2diB9N8m8-23" edge="1">
          <mxGeometry width="50" height="50" relative="1" as="geometry">
            <mxPoint x="1012" y="-495" as="sourcePoint" />
            <mxPoint x="954" y="-437" as="targetPoint" />
          </mxGeometry>
        </mxCell>
        <object label="&lt;span style=&quot;font-size: 10px&quot;&gt;&lt;b&gt;%name%&lt;/b&gt;&lt;br&gt;&lt;/span&gt;" placeholders="1" name="passbolt.abbaye11.ch" id="gcMdHWp9isfbmhsGIW3t-1">
          <mxCell style="endArrow=block;html=1;fontSize=10;fontColor=#404040;strokeWidth=1;endFill=1;strokeColor=#828282;elbow=vertical;metaEdit=1;rounded=0;fontFamily=Comic Sans MS;exitX=0.5;exitY=1;exitDx=0;exitDy=0;entryX=0.5;entryY=0;entryDx=0;entryDy=0;" edge="1" parent="1" source="Vcw_pxPkx2uI8fqFtCrv-2" target="gcMdHWp9isfbmhsGIW3t-2">
            <mxGeometry width="50" height="50" relative="1" as="geometry">
              <mxPoint x="500" y="-630" as="sourcePoint" />
              <mxPoint x="764" y="-396" as="targetPoint" />
            </mxGeometry>
          </mxCell>
        </object>
        <object label="&lt;div&gt;&lt;span style=&quot;font-size: 14px&quot;&gt;&lt;b&gt;%name%&lt;/b&gt;&lt;/span&gt;&lt;/div&gt;&lt;div&gt;&lt;span style=&quot;font-size: 8px&quot;&gt;[Container: %technology%]&lt;/span&gt;&lt;/div&gt;&lt;div&gt;&lt;span style=&quot;font-size: 8px&quot;&gt;&lt;br&gt;&lt;/span&gt;&lt;/div&gt;&lt;div&gt;&lt;font size=&quot;1&quot;&gt;%description%&lt;/font&gt;&lt;/div&gt;" placeholders="1" name="passbolt" technology="e.g. Python, Flask" description="[Docker Compose]&#xa;Déploiement" id="gcMdHWp9isfbmhsGIW3t-2">
          <mxCell style="rounded=0;whiteSpace=wrap;html=1;fillColor=#dae8fc;strokeColor=#6c8ebf;resizable=0;rotatable=0;metaEdit=1;shadow=1;glass=0;fontFamily=Comic Sans MS;fontSize=11;" vertex="1" parent="1">
            <mxGeometry x="590" y="-390" width="180" height="120" as="geometry" />
          </mxCell>
        </object>
        <mxCell id="gcMdHWp9isfbmhsGIW3t-3" value="" style="endArrow=classic;html=1;rounded=0;exitX=0.5;exitY=1;exitDx=0;exitDy=0;entryX=0.5;entryY=0;entryDx=0;entryDy=0;dashed=1;dashPattern=8 8;fillColor=#f5f5f5;strokeColor=#A3A3A3;" edge="1" parent="1" source="Vcw_pxPkx2uI8fqFtCrv-15" target="Vcw_pxPkx2uI8fqFtCrv-5">
          <mxGeometry width="50" height="50" relative="1" as="geometry">
            <mxPoint x="180" y="-630" as="sourcePoint" />
            <mxPoint x="210" y="-384" as="targetPoint" />
          </mxGeometry>
        </mxCell>
        <mxCell id="gcMdHWp9isfbmhsGIW3t-4" value="github action" style="edgeLabel;html=1;align=center;verticalAlign=middle;resizable=0;points=[];fontColor=#A3A3A3;" vertex="1" connectable="0" parent="gcMdHWp9isfbmhsGIW3t-3">
          <mxGeometry x="-0.3268" y="-1" relative="1" as="geometry">
            <mxPoint as="offset" />
          </mxGeometry>
        </mxCell>
        <mxCell id="gcMdHWp9isfbmhsGIW3t-5" value="" style="endArrow=classic;html=1;rounded=0;exitX=0.5;exitY=1;exitDx=0;exitDy=0;entryX=0.5;entryY=0;entryDx=0;entryDy=0;dashed=1;dashPattern=8 8;fillColor=#f5f5f5;strokeColor=#A3A3A3;" edge="1" parent="1" source="Vcw_pxPkx2uI8fqFtCrv-15" target="gcMdHWp9isfbmhsGIW3t-2">
          <mxGeometry width="50" height="50" relative="1" as="geometry">
            <mxPoint x="180" y="-630" as="sourcePoint" />
            <mxPoint x="477" y="-382" as="targetPoint" />
          </mxGeometry>
        </mxCell>
        <mxCell id="gcMdHWp9isfbmhsGIW3t-6" value="github action" style="edgeLabel;html=1;align=center;verticalAlign=middle;resizable=0;points=[];fontColor=#A3A3A3;" vertex="1" connectable="0" parent="gcMdHWp9isfbmhsGIW3t-5">
          <mxGeometry x="-0.3268" y="-1" relative="1" as="geometry">
            <mxPoint as="offset" />
          </mxGeometry>
        </mxCell>
        <mxCell id="gcMdHWp9isfbmhsGIW3t-7" value="" style="endArrow=classic;html=1;rounded=0;exitX=1;exitY=0.5;exitDx=0;exitDy=0;dashed=1;dashPattern=8 8;fillColor=#f5f5f5;strokeColor=#A3A3A3;" edge="1" parent="1" source="Vcw_pxPkx2uI8fqFtCrv-15" target="Vcw_pxPkx2uI8fqFtCrv-2">
          <mxGeometry width="50" height="50" relative="1" as="geometry">
            <mxPoint x="180" y="-630" as="sourcePoint" />
            <mxPoint x="690" y="-380" as="targetPoint" />
          </mxGeometry>
        </mxCell>
        <mxCell id="gcMdHWp9isfbmhsGIW3t-8" value="github action" style="edgeLabel;html=1;align=center;verticalAlign=middle;resizable=0;points=[];fontColor=#A3A3A3;" vertex="1" connectable="0" parent="gcMdHWp9isfbmhsGIW3t-7">
          <mxGeometry x="-0.3268" y="-1" relative="1" as="geometry">
            <mxPoint as="offset" />
          </mxGeometry>
        </mxCell>
        <object placeholders="1" c4Name="passbolt" c4Type="SystemScopeBoundary" c4Application="Software System" label="&lt;font style=&quot;font-size: 16px&quot;&gt;&lt;b&gt;&lt;div style=&quot;text-align: left&quot;&gt;%c4Name%&lt;/div&gt;&lt;/b&gt;&lt;/font&gt;&lt;div style=&quot;text-align: left&quot;&gt;[%c4Application%]&lt;/div&gt;" id="gcMdHWp9isfbmhsGIW3t-9">
          <mxCell style="rounded=1;fontSize=11;whiteSpace=wrap;html=1;dashed=1;arcSize=20;fillColor=#dae8fc;strokeColor=#6c8ebf;labelBackgroundColor=none;align=left;verticalAlign=bottom;labelBorderColor=none;spacingTop=0;spacing=10;dashPattern=8 4;metaEdit=1;rotatable=0;perimeter=rectanglePerimeter;noLabel=0;labelPadding=0;allowArrows=0;connectable=0;expand=0;recursiveResize=0;editable=1;pointerEvents=0;absoluteArcSize=1;points=[[0.25,0,0],[0.5,0,0],[0.75,0,0],[1,0.25,0],[1,0.5,0],[1,0.75,0],[0.75,1,0],[0.5,1,0],[0.25,1,0],[0,0.75,0],[0,0.5,0],[0,0.25,0]];fontFamily=Comic Sans MS;" vertex="1" parent="1">
            <mxGeometry x="1515" y="-618" width="260" height="324" as="geometry" />
          </mxCell>
        </object>
        <object placeholders="1" c4Name="passbolt" c4Type="Container" c4Technology="https://hub.docker.com/r/&#xa;passbolt/passbolt/" c4Description="Serveur Minio" label="&lt;font style=&quot;font-size: 16px&quot;&gt;&lt;b&gt;%c4Name%&lt;/b&gt;&lt;/font&gt;&lt;div&gt;[%c4Type%: %c4Technology%]&lt;/div&gt;&lt;br&gt;&lt;div&gt;&lt;font style=&quot;font-size: 11px&quot;&gt;&lt;font color=&quot;#E6E6E6&quot;&gt;%c4Description%&lt;/font&gt;&lt;/font&gt;&lt;/div&gt;" id="gcMdHWp9isfbmhsGIW3t-10">
          <mxCell style="rounded=1;whiteSpace=wrap;html=1;fontSize=11;labelBackgroundColor=none;fillColor=#23A2D9;fontColor=#ffffff;align=center;arcSize=10;strokeColor=#0E7DAD;metaEdit=1;resizable=1;points=[[0.25,0,0],[0.5,0,0],[0.75,0,0],[1,0.25,0],[1,0.5,0],[1,0.75,0],[0.75,1,0],[0.5,1,0],[0.25,1,0],[0,0.75,0],[0,0.5,0],[0,0.25,0]];fontFamily=Comic Sans MS;" vertex="1" parent="1">
            <mxGeometry x="1540" y="-588" width="210" height="90" as="geometry" />
          </mxCell>
        </object>
        <object placeholders="1" c4Name="mariadb" c4Type="Container" c4Technology="https://hub.docker.com/_/mariadb" c4Description="Minio Admin CLient" label="&lt;font style=&quot;font-size: 16px&quot;&gt;&lt;b&gt;%c4Name%&lt;/b&gt;&lt;/font&gt;&lt;div&gt;[%c4Type%: %c4Technology%]&lt;/div&gt;&lt;br&gt;&lt;div&gt;&lt;font style=&quot;font-size: 11px&quot;&gt;&lt;font color=&quot;#E6E6E6&quot;&gt;%c4Description%&lt;/font&gt;&lt;/font&gt;&lt;/div&gt;" id="gcMdHWp9isfbmhsGIW3t-11">
          <mxCell style="rounded=1;whiteSpace=wrap;html=1;fontSize=11;labelBackgroundColor=none;fillColor=#23A2D9;fontColor=#ffffff;align=center;arcSize=10;strokeColor=#0E7DAD;metaEdit=1;resizable=1;points=[[0.25,0,0],[0.5,0,0],[0.75,0,0],[1,0.25,0],[1,0.5,0],[1,0.75,0],[0.75,1,0],[0.5,1,0],[0.25,1,0],[0,0.75,0],[0,0.5,0],[0,0.25,0]];fontFamily=Comic Sans MS;" vertex="1" parent="1">
            <mxGeometry x="1541" y="-447" width="210" height="90" as="geometry" />
          </mxCell>
        </object>
        <mxCell id="gcMdHWp9isfbmhsGIW3t-12" value="" style="endArrow=classic;html=1;rounded=0;exitX=0.5;exitY=1;exitDx=0;exitDy=0;exitPerimeter=0;fontFamily=Comic Sans MS;" edge="1" parent="1" source="ebQpPg_UTsu2diB9N8m8-9">
          <mxGeometry width="50" height="50" relative="1" as="geometry">
            <mxPoint x="1162" y="-861" as="sourcePoint" />
            <mxPoint x="1652" y="-619" as="targetPoint" />
          </mxGeometry>
        </mxCell>
        <mxCell id="gcMdHWp9isfbmhsGIW3t-13" value="http://passbolt" style="edgeLabel;html=1;align=center;verticalAlign=middle;resizable=0;points=[];fontFamily=Comic Sans MS;" vertex="1" connectable="0" parent="gcMdHWp9isfbmhsGIW3t-12">
          <mxGeometry x="0.1226" relative="1" as="geometry">
            <mxPoint as="offset" />
          </mxGeometry>
        </mxCell>
        <mxCell id="gcMdHWp9isfbmhsGIW3t-14" value="" style="endArrow=classic;html=1;rounded=0;exitX=0.5;exitY=1;exitDx=0;exitDy=0;exitPerimeter=0;entryX=0.5;entryY=0;entryDx=0;entryDy=0;entryPerimeter=0;fontFamily=Comic Sans MS;" edge="1" parent="1" source="gcMdHWp9isfbmhsGIW3t-10" target="gcMdHWp9isfbmhsGIW3t-11">
          <mxGeometry width="50" height="50" relative="1" as="geometry">
            <mxPoint x="1107" y="-505" as="sourcePoint" />
            <mxPoint x="1140" y="-447" as="targetPoint" />
          </mxGeometry>
        </mxCell>
        <object label="&lt;div&gt;&lt;span style=&quot;font-size: 14px&quot;&gt;&lt;b&gt;%name%&lt;/b&gt;&lt;/span&gt;&lt;/div&gt;&lt;div&gt;&lt;span style=&quot;font-size: 8px&quot;&gt;[Container: %technology%]&lt;/span&gt;&lt;/div&gt;&lt;div&gt;&lt;span style=&quot;font-size: 8px&quot;&gt;&lt;br&gt;&lt;/span&gt;&lt;/div&gt;&lt;div&gt;&lt;font size=&quot;1&quot;&gt;%description%&lt;/font&gt;&lt;/div&gt;" placeholders="1" name="passbolt" technology="e.g. Python, Flask" description="[Docker Compose]&#xa;Déploiement" id="gcMdHWp9isfbmhsGIW3t-15">
          <mxCell style="rounded=0;whiteSpace=wrap;html=1;fillColor=#dae8fc;strokeColor=#6c8ebf;resizable=0;rotatable=0;metaEdit=1;shadow=1;glass=0;fontFamily=Comic Sans MS;fontSize=11;" vertex="1" parent="1">
            <mxGeometry x="445" y="820" width="180" height="120" as="geometry" />
          </mxCell>
        </object>
        <mxCell id="gcMdHWp9isfbmhsGIW3t-16" value="" style="endArrow=classic;html=1;rounded=0;exitX=0.75;exitY=1;exitDx=0;exitDy=0;entryX=0.5;entryY=0;entryDx=0;entryDy=0;strokeWidth=3;" edge="1" parent="1" source="85LmdbZgtBXUg3xD-tvl-7" target="gcMdHWp9isfbmhsGIW3t-17">
          <mxGeometry width="50" height="50" relative="1" as="geometry">
            <mxPoint x="545" y="710" as="sourcePoint" />
            <mxPoint x="383" y="830" as="targetPoint" />
          </mxGeometry>
        </mxCell>
        <mxCell id="gcMdHWp9isfbmhsGIW3t-17" value="80" style="rounded=1;whiteSpace=wrap;html=1;fontStyle=1;fontSize=20;fontFamily=Comic Sans MS;comic=1;fillColor=#6d8764;fontColor=#ffffff;strokeColor=#3A5431;" vertex="1" parent="1">
          <mxGeometry x="564" y="793" width="85" height="40" as="geometry" />
        </mxCell>
      </root>
    </mxGraphModel>
  </diagram>
  <diagram id="Hoe8-7HgG1vpurcCDEgW" name="kestra-compose">
    <mxGraphModel dx="979" dy="743" grid="1" gridSize="10" guides="1" tooltips="1" connect="1" arrows="1" fold="1" page="1" pageScale="1" pageWidth="827" pageHeight="1169" math="0" shadow="0">
      <root>
        <mxCell id="0" />
        <mxCell id="1" parent="0" />
        <object label="&lt;div&gt;&lt;span style=&quot;font-size: 14px&quot;&gt;&lt;b&gt;%name%&lt;/b&gt;&lt;/span&gt;&lt;/div&gt;&lt;div&gt;&lt;span style=&quot;font-size: 8px&quot;&gt;[Container: %technology%]&lt;/span&gt;&lt;/div&gt;&lt;div&gt;&lt;span style=&quot;font-size: 8px&quot;&gt;&lt;br&gt;&lt;/span&gt;&lt;/div&gt;&lt;div&gt;&lt;font size=&quot;1&quot;&gt;%description%&lt;/font&gt;&lt;/div&gt;" placeholders="1" name="Kestra-full" technology="kestra/kestra:latest-full" description="Description" id="ZLvlW6HvT2CZMMLVYhQ6-1">
          <mxCell style="rounded=0;whiteSpace=wrap;html=1;fillColor=#d5e8d4;strokeColor=#82b366;resizable=0;rotatable=0;metaEdit=1;shadow=1;glass=0;fontFamily=Comic Sans MS;fontSize=11;" parent="1" vertex="1">
            <mxGeometry x="350" y="220" width="180" height="120" as="geometry" />
          </mxCell>
        </object>
        <object label="&lt;div&gt;&lt;span style=&quot;font-size: 14px&quot;&gt;&lt;b&gt;%name%&lt;/b&gt;&lt;/span&gt;&lt;/div&gt;&lt;div&gt;&lt;span style=&quot;font-size: 8px&quot;&gt;[Container: %technology%]&lt;/span&gt;&lt;/div&gt;&lt;div&gt;&lt;span style=&quot;font-size: 8px&quot;&gt;&lt;br&gt;&lt;/span&gt;&lt;/div&gt;&lt;div&gt;&lt;font size=&quot;1&quot;&gt;%description%&lt;/font&gt;&lt;/div&gt;" placeholders="1" name="Postgres" technology="postgres" description="Description" id="ZLvlW6HvT2CZMMLVYhQ6-2">
          <mxCell style="rounded=0;whiteSpace=wrap;html=1;fillColor=#d5e8d4;strokeColor=#82b366;resizable=0;rotatable=0;metaEdit=1;shadow=1;glass=0;fontFamily=Comic Sans MS;fontSize=11;" parent="1" vertex="1">
            <mxGeometry x="190" y="440" width="180" height="120" as="geometry" />
          </mxCell>
        </object>
        <object label="&lt;div&gt;&lt;span style=&quot;font-size: 14px&quot;&gt;&lt;b&gt;%name%&lt;/b&gt;&lt;/span&gt;&lt;/div&gt;&lt;div&gt;&lt;span style=&quot;font-size: 8px&quot;&gt;[Container: %technology%]&lt;/span&gt;&lt;/div&gt;&lt;div&gt;&lt;span style=&quot;font-size: 8px&quot;&gt;&lt;br&gt;&lt;/span&gt;&lt;/div&gt;&lt;div&gt;&lt;font size=&quot;1&quot;&gt;%description%&lt;/font&gt;&lt;/div&gt;" placeholders="1" name="Minio" technology="quay.io/minio/minio" description="Description" id="ZLvlW6HvT2CZMMLVYhQ6-3">
          <mxCell style="rounded=0;whiteSpace=wrap;html=1;fillColor=#d5e8d4;strokeColor=#82b366;resizable=0;rotatable=0;metaEdit=1;shadow=1;glass=0;fontFamily=Comic Sans MS;fontSize=11;" parent="1" vertex="1">
            <mxGeometry x="530" y="445" width="180" height="120" as="geometry" />
          </mxCell>
        </object>
        <mxCell id="EVMJW-r_kvclWcFlknhl-2" value="TCP:5432" style="shape=parallelogram;perimeter=parallelogramPerimeter;whiteSpace=wrap;html=1;fixedSize=1;shadow=1;glass=0;fontFamily=Comic Sans MS;fontSize=8;fontStyle=1" parent="1" vertex="1">
          <mxGeometry x="235" y="430" width="90" height="20" as="geometry" />
        </mxCell>
        <mxCell id="EVMJW-r_kvclWcFlknhl-3" value="TCP:9000" style="shape=parallelogram;perimeter=parallelogramPerimeter;whiteSpace=wrap;html=1;fixedSize=1;shadow=1;glass=0;fontFamily=Comic Sans MS;fontSize=8;fontStyle=1" parent="1" vertex="1">
          <mxGeometry x="530" y="435" width="90" height="20" as="geometry" />
        </mxCell>
        <mxCell id="EVMJW-r_kvclWcFlknhl-4" value="TCP:9001" style="shape=parallelogram;perimeter=parallelogramPerimeter;whiteSpace=wrap;html=1;fixedSize=1;shadow=1;glass=0;fontFamily=Comic Sans MS;fontSize=8;fontStyle=1" parent="1" vertex="1">
          <mxGeometry x="630" y="435" width="90" height="20" as="geometry" />
        </mxCell>
        <mxCell id="EVMJW-r_kvclWcFlknhl-5" value="TCP:8080" style="shape=parallelogram;perimeter=parallelogramPerimeter;whiteSpace=wrap;html=1;fixedSize=1;shadow=1;glass=0;fontFamily=Comic Sans MS;fontSize=8;fontStyle=1" parent="1" vertex="1">
          <mxGeometry x="350" y="210" width="90" height="20" as="geometry" />
        </mxCell>
        <mxCell id="EVMJW-r_kvclWcFlknhl-6" value="TCP:8081" style="shape=parallelogram;perimeter=parallelogramPerimeter;whiteSpace=wrap;html=1;fixedSize=1;shadow=1;glass=0;fontFamily=Comic Sans MS;fontSize=8;fontStyle=1" parent="1" vertex="1">
          <mxGeometry x="450" y="210" width="90" height="20" as="geometry" />
        </mxCell>
        <object label="&lt;b&gt;%name%&lt;/b&gt;&lt;br style=&quot;font-size: 10px&quot;&gt;[%technology%]" placeholders="1" name="Document access" technology="TCP" id="EVMJW-r_kvclWcFlknhl-7">
          <mxCell style="endArrow=block;html=1;fontSize=10;fontColor=#404040;strokeWidth=1;endFill=1;dashed=1;dashPattern=8 8;strokeColor=#828282;elbow=vertical;metaEdit=1;rounded=0;fontFamily=Comic Sans MS;exitX=0.75;exitY=1;exitDx=0;exitDy=0;entryX=0.5;entryY=0;entryDx=0;entryDy=0;" parent="1" source="ZLvlW6HvT2CZMMLVYhQ6-1" target="EVMJW-r_kvclWcFlknhl-3" edge="1">
            <mxGeometry width="50" height="50" relative="1" as="geometry">
              <mxPoint x="470" y="360" as="sourcePoint" />
              <mxPoint x="670" y="360" as="targetPoint" />
            </mxGeometry>
          </mxCell>
        </object>
        <object label="&lt;b&gt;%name%&lt;/b&gt;&lt;br style=&quot;font-size: 10px&quot;&gt;[%technology%]" placeholders="1" name="Db access" technology="JDBC" id="EVMJW-r_kvclWcFlknhl-8">
          <mxCell style="endArrow=block;html=1;fontSize=10;fontColor=#404040;strokeWidth=1;endFill=1;dashed=1;dashPattern=8 8;strokeColor=#828282;elbow=vertical;metaEdit=1;rounded=0;fontFamily=Comic Sans MS;exitX=0.25;exitY=1;exitDx=0;exitDy=0;" parent="1" source="ZLvlW6HvT2CZMMLVYhQ6-1" target="EVMJW-r_kvclWcFlknhl-2" edge="1">
            <mxGeometry width="50" height="50" relative="1" as="geometry">
              <mxPoint x="470" y="360" as="sourcePoint" />
              <mxPoint x="670" y="360" as="targetPoint" />
            </mxGeometry>
          </mxCell>
        </object>
      </root>
    </mxGraphModel>
  </diagram>
  <diagram id="WuZsDIPsy-nakT3eJZJk" name="GitHub.com">
    <mxGraphModel dx="1399" dy="1061" grid="0" gridSize="10" guides="1" tooltips="1" connect="1" arrows="1" fold="1" page="1" pageScale="1" pageWidth="827" pageHeight="1169" math="0" shadow="0">
      <root>
        <mxCell id="0" />
        <mxCell id="1" parent="0" />
        <mxCell id="Bnw5Y2rvq2sI8T-70iUb-9" value="&lt;h1&gt;Git architecture&lt;/h1&gt;&lt;p&gt;Architecture des repository github&lt;/p&gt;" style="text;html=1;strokeColor=none;fillColor=none;spacing=5;spacingTop=-20;whiteSpace=wrap;overflow=hidden;rounded=0;comic=1;" parent="1" vertex="1">
          <mxGeometry x="30" y="20" width="190" height="120" as="geometry" />
        </mxCell>
        <object placeholders="1" c4Name="Github.com [Abbaye11]" c4Type="GitHub organisation" c4Description="Description of software system." label="&lt;font style=&quot;font-size: 16px&quot;&gt;&lt;b&gt;%c4Name%&lt;/b&gt;&lt;/font&gt;&lt;div&gt;[%c4Type%]&lt;/div&gt;&lt;br&gt;&lt;div&gt;&lt;font style=&quot;font-size: 11px&quot;&gt;&lt;font color=&quot;#cccccc&quot;&gt;%c4Description%&lt;/font&gt;&lt;/div&gt;" id="Bnw5Y2rvq2sI8T-70iUb-10">
          <mxCell style="rounded=1;whiteSpace=wrap;html=1;labelBackgroundColor=none;fillColor=#1061B0;fontColor=#ffffff;align=center;arcSize=10;strokeColor=#0D5091;metaEdit=1;resizable=0;points=[[0.25,0,0],[0.5,0,0],[0.75,0,0],[1,0.25,0],[1,0.5,0],[1,0.75,0],[0.75,1,0],[0.5,1,0],[0.25,1,0],[0,0.75,0],[0,0.5,0],[0,0.25,0]];comic=1;" parent="1" vertex="1">
            <mxGeometry x="50" y="130" width="240" height="120" as="geometry" />
          </mxCell>
        </object>
        <object placeholders="1" c4Name="kestra" c4Type="Container" c4Technology="Repository privé" c4Description="kestra" label="&lt;font style=&quot;font-size: 16px&quot;&gt;&lt;b&gt;%c4Name%&lt;/b&gt;&lt;/font&gt;&lt;div&gt;[%c4Type%: %c4Technology%]&lt;/div&gt;&lt;br&gt;&lt;div&gt;&lt;font style=&quot;font-size: 11px&quot;&gt;&lt;font color=&quot;#E6E6E6&quot;&gt;%c4Description%&lt;/font&gt;&lt;/div&gt;" id="Bnw5Y2rvq2sI8T-70iUb-11">
          <mxCell style="rounded=1;whiteSpace=wrap;html=1;fontSize=11;labelBackgroundColor=none;fillColor=#23A2D9;fontColor=#ffffff;align=center;arcSize=10;strokeColor=#0E7DAD;metaEdit=1;resizable=0;points=[[0.25,0,0],[0.5,0,0],[0.75,0,0],[1,0.25,0],[1,0.5,0],[1,0.75,0],[0.75,1,0],[0.5,1,0],[0.25,1,0],[0,0.75,0],[0,0.5,0],[0,0.25,0]];comic=1;" parent="1" vertex="1">
            <mxGeometry x="440" y="40" width="240" height="120" as="geometry" />
          </mxCell>
        </object>
        <object placeholders="1" c4Name="nginx-reverse-proxy" c4Type="Container" c4Technology="Repository privé" c4Description="Description of container role/responsibility." label="&lt;font style=&quot;font-size: 16px&quot;&gt;&lt;b&gt;%c4Name%&lt;/b&gt;&lt;/font&gt;&lt;div&gt;[%c4Type%: %c4Technology%]&lt;/div&gt;&lt;br&gt;&lt;div&gt;&lt;font style=&quot;font-size: 11px&quot;&gt;&lt;font color=&quot;#E6E6E6&quot;&gt;%c4Description%&lt;/font&gt;&lt;/div&gt;" id="Bnw5Y2rvq2sI8T-70iUb-12">
          <mxCell style="rounded=1;whiteSpace=wrap;html=1;fontSize=11;labelBackgroundColor=none;fillColor=#23A2D9;fontColor=#ffffff;align=center;arcSize=10;strokeColor=#0E7DAD;metaEdit=1;resizable=0;points=[[0.25,0,0],[0.5,0,0],[0.75,0,0],[1,0.25,0],[1,0.5,0],[1,0.75,0],[0.75,1,0],[0.5,1,0],[0.25,1,0],[0,0.75,0],[0,0.5,0],[0,0.25,0]];comic=1;" parent="1" vertex="1">
            <mxGeometry x="440" y="190" width="240" height="120" as="geometry" />
          </mxCell>
        </object>
        <object placeholders="1" c4Type="Relationship" c4Description="" label="&lt;div style=&quot;text-align: left&quot;&gt;&lt;div style=&quot;text-align: center&quot;&gt;&lt;b&gt;%c4Description%&lt;/b&gt;&lt;/div&gt;" id="Bnw5Y2rvq2sI8T-70iUb-13">
          <mxCell style="endArrow=blockThin;html=1;fontSize=10;fontColor=#404040;strokeWidth=1;endFill=1;strokeColor=#828282;elbow=vertical;metaEdit=1;endSize=14;startSize=14;jumpStyle=arc;jumpSize=16;rounded=0;entryX=0;entryY=0.5;entryDx=0;entryDy=0;entryPerimeter=0;comic=1;" parent="1" source="Bnw5Y2rvq2sI8T-70iUb-10" target="Bnw5Y2rvq2sI8T-70iUb-11" edge="1">
            <mxGeometry width="240" relative="1" as="geometry">
              <mxPoint x="250" y="300" as="sourcePoint" />
              <mxPoint x="510" y="340" as="targetPoint" />
            </mxGeometry>
          </mxCell>
        </object>
        <object placeholders="1" c4Type="Relationship" c4Description="" label="&lt;div style=&quot;text-align: left&quot;&gt;&lt;div style=&quot;text-align: center&quot;&gt;&lt;b&gt;%c4Description%&lt;/b&gt;&lt;/div&gt;" id="Bnw5Y2rvq2sI8T-70iUb-14">
          <mxCell style="endArrow=blockThin;html=1;fontSize=10;fontColor=#404040;strokeWidth=1;endFill=1;strokeColor=#828282;elbow=vertical;metaEdit=1;endSize=14;startSize=14;jumpStyle=arc;jumpSize=16;rounded=0;exitX=1;exitY=0.75;exitDx=0;exitDy=0;exitPerimeter=0;comic=1;" parent="1" source="Bnw5Y2rvq2sI8T-70iUb-10" target="Bnw5Y2rvq2sI8T-70iUb-12" edge="1">
            <mxGeometry width="240" relative="1" as="geometry">
              <mxPoint x="300" y="163" as="sourcePoint" />
              <mxPoint x="470" y="110" as="targetPoint" />
            </mxGeometry>
          </mxCell>
        </object>
        <UserObject label="github" link="https://github.com/Abbaye11/kestra" id="Bnw5Y2rvq2sI8T-70iUb-16">
          <mxCell style="fontStyle=4;rounded=1;overflow=hidden;spacing=10;fillColor=#d5e8d4;strokeColor=#82b366;shadow=1;comic=1;" parent="1" vertex="1">
            <mxGeometry x="644" y="28" width="70" height="20" as="geometry" />
          </mxCell>
        </UserObject>
        <UserObject label="github" link="https://github.com/Abbaye11/nginx-reverse-proxy" id="Bnw5Y2rvq2sI8T-70iUb-17">
          <mxCell style="fontStyle=4;rounded=1;overflow=hidden;spacing=10;fillColor=#d5e8d4;strokeColor=#82b366;comic=1;" parent="1" vertex="1">
            <mxGeometry x="649" y="180" width="65" height="20" as="geometry" />
          </mxCell>
        </UserObject>
        <object placeholders="1" c4Name="seb" c4Type="Person" c4Description="Description of person." label="&lt;font style=&quot;font-size: 16px&quot;&gt;&lt;b&gt;%c4Name%&lt;/b&gt;&lt;/font&gt;&lt;div&gt;[%c4Type%]&lt;/div&gt;&lt;br&gt;&lt;div&gt;&lt;font style=&quot;font-size: 11px&quot;&gt;&lt;font color=&quot;#cccccc&quot;&gt;%c4Description%&lt;/font&gt;&lt;/div&gt;" id="b1o58F80pndK1wChs-z1-1">
          <mxCell style="html=1;fontSize=11;dashed=0;whiteSpace=wrap;fillColor=#083F75;strokeColor=#06315C;fontColor=#ffffff;shape=mxgraph.c4.person2;align=center;metaEdit=1;points=[[0.5,0,0],[1,0.5,0],[1,0.75,0],[0.75,1,0],[0.5,1,0],[0.25,1,0],[0,0.75,0],[0,0.5,0]];resizable=0;comic=1;" parent="1" vertex="1">
            <mxGeometry x="70" y="580" width="200" height="180" as="geometry" />
          </mxCell>
        </object>
        <object placeholders="1" c4Type="Relationship" id="b1o58F80pndK1wChs-z1-2">
          <mxCell style="endArrow=blockThin;html=1;fontSize=10;fontColor=#404040;strokeWidth=1;endFill=1;strokeColor=#828282;elbow=vertical;metaEdit=1;endSize=14;startSize=14;jumpStyle=arc;jumpSize=16;rounded=0;exitX=0.5;exitY=0;exitDx=0;exitDy=0;exitPerimeter=0;comic=1;" parent="1" source="b1o58F80pndK1wChs-z1-1" target="Bnw5Y2rvq2sI8T-70iUb-10" edge="1">
            <mxGeometry width="240" relative="1" as="geometry">
              <mxPoint x="270" y="370" as="sourcePoint" />
              <mxPoint x="510" y="370" as="targetPoint" />
            </mxGeometry>
          </mxCell>
        </object>
        <object placeholders="1" c4Name="GitHub Personnal Access Token" c4Type="Component" c4Technology="e.g. Spring Service" c4Description="Description of component role/responsibility." label="&lt;font style=&quot;font-size: 16px&quot;&gt;&lt;b&gt;%c4Name%&lt;/b&gt;&lt;/font&gt;&lt;div&gt;[%c4Type%: %c4Technology%]&lt;/div&gt;&lt;br&gt;&lt;div&gt;&lt;font style=&quot;font-size: 11px&quot;&gt;%c4Description%&lt;/font&gt;&lt;/div&gt;" id="b1o58F80pndK1wChs-z1-3">
          <mxCell style="rounded=1;whiteSpace=wrap;html=1;labelBackgroundColor=none;fillColor=#f8cecc;align=center;arcSize=6;strokeColor=#b85450;metaEdit=1;resizable=0;points=[[0.25,0,0],[0.5,0,0],[0.75,0,0],[1,0.25,0],[1,0.5,0],[1,0.75,0],[0.75,1,0],[0.5,1,0],[0.25,1,0],[0,0.75,0],[0,0.5,0],[0,0.25,0]];comic=1;" parent="1" vertex="1">
            <mxGeometry x="440" y="655" width="240" height="120" as="geometry" />
          </mxCell>
        </object>
        <object placeholders="1" c4Type="Relationship" id="b1o58F80pndK1wChs-z1-4">
          <mxCell style="endArrow=blockThin;html=1;fontSize=10;fontColor=#404040;strokeWidth=1;endFill=1;strokeColor=#828282;elbow=vertical;metaEdit=1;endSize=14;startSize=14;jumpStyle=arc;jumpSize=16;rounded=0;exitX=1;exitY=0.75;exitDx=0;exitDy=0;exitPerimeter=0;entryX=0;entryY=0.5;entryDx=0;entryDy=0;entryPerimeter=0;comic=1;" parent="1" source="b1o58F80pndK1wChs-z1-1" target="b1o58F80pndK1wChs-z1-3" edge="1">
            <mxGeometry width="240" relative="1" as="geometry">
              <mxPoint x="280" y="550" as="sourcePoint" />
              <mxPoint x="520" y="550" as="targetPoint" />
            </mxGeometry>
          </mxCell>
        </object>
        <object placeholders="1" c4Type="Relationship" id="b1o58F80pndK1wChs-z1-5">
          <mxCell style="endArrow=blockThin;html=1;fontSize=10;fontColor=#404040;strokeWidth=1;endFill=1;strokeColor=#828282;elbow=vertical;metaEdit=1;endSize=14;startSize=14;jumpStyle=arc;jumpSize=16;rounded=0;exitX=0;exitY=0.25;exitDx=0;exitDy=0;exitPerimeter=0;entryX=0.75;entryY=1;entryDx=0;entryDy=0;entryPerimeter=0;comic=1;" parent="1" source="b1o58F80pndK1wChs-z1-3" target="Bnw5Y2rvq2sI8T-70iUb-10" edge="1">
            <mxGeometry width="240" relative="1" as="geometry">
              <mxPoint x="280" y="420" as="sourcePoint" />
              <mxPoint x="520" y="420" as="targetPoint" />
            </mxGeometry>
          </mxCell>
        </object>
        <mxCell id="b1o58F80pndK1wChs-z1-6" value="grant access" style="edgeLabel;html=1;align=center;verticalAlign=middle;resizable=0;points=[];comic=1;" parent="b1o58F80pndK1wChs-z1-5" vertex="1" connectable="0">
          <mxGeometry x="-0.393" y="-1" relative="1" as="geometry">
            <mxPoint as="offset" />
          </mxGeometry>
        </mxCell>
        <object placeholders="1" c4Name="minio-nr" c4Type="Container" c4Technology="Repository privé" c4Description="Description of container role/responsibility." label="&lt;font style=&quot;font-size: 16px&quot;&gt;&lt;b&gt;%c4Name%&lt;/b&gt;&lt;/font&gt;&lt;div&gt;[%c4Type%: %c4Technology%]&lt;/div&gt;&lt;br&gt;&lt;div&gt;&lt;font style=&quot;font-size: 11px&quot;&gt;&lt;font color=&quot;#E6E6E6&quot;&gt;%c4Description%&lt;/font&gt;&lt;/div&gt;" id="kHqRgsWRTajMo3OUoh4G-1">
          <mxCell style="rounded=1;whiteSpace=wrap;html=1;fontSize=11;labelBackgroundColor=none;fillColor=#23A2D9;fontColor=#ffffff;align=center;arcSize=10;strokeColor=#0E7DAD;metaEdit=1;resizable=0;points=[[0.25,0,0],[0.5,0,0],[0.75,0,0],[1,0.25,0],[1,0.5,0],[1,0.75,0],[0.75,1,0],[0.5,1,0],[0.25,1,0],[0,0.75,0],[0,0.5,0],[0,0.25,0]];comic=1;" parent="1" vertex="1">
            <mxGeometry x="440" y="330" width="240" height="120" as="geometry" />
          </mxCell>
        </object>
        <object placeholders="1" c4Type="Relationship" c4Description="" label="&lt;div style=&quot;text-align: left&quot;&gt;&lt;div style=&quot;text-align: center&quot;&gt;&lt;b&gt;%c4Description%&lt;/b&gt;&lt;/div&gt;" id="kHqRgsWRTajMo3OUoh4G-2">
          <mxCell style="endArrow=blockThin;html=1;fontSize=10;fontColor=#404040;strokeWidth=1;endFill=1;strokeColor=#828282;elbow=vertical;metaEdit=1;endSize=14;startSize=14;jumpStyle=arc;jumpSize=16;rounded=0;exitX=0.942;exitY=1.008;exitDx=0;exitDy=0;exitPerimeter=0;entryX=0;entryY=0.5;entryDx=0;entryDy=0;entryPerimeter=0;comic=1;" parent="1" source="Bnw5Y2rvq2sI8T-70iUb-10" target="kHqRgsWRTajMo3OUoh4G-1" edge="1">
            <mxGeometry width="240" relative="1" as="geometry">
              <mxPoint x="300" y="230" as="sourcePoint" />
              <mxPoint x="470" y="265" as="targetPoint" />
            </mxGeometry>
          </mxCell>
        </object>
        <UserObject label="github" link="https://github.com/Abbaye11/minio-nr" id="AoYNHn_PLi_19imTn6P7-1">
          <mxCell style="fontStyle=4;rounded=1;overflow=hidden;spacing=10;fillColor=#d5e8d4;strokeColor=#82b366;comic=1;" parent="1" vertex="1">
            <mxGeometry x="649" y="320" width="65" height="20" as="geometry" />
          </mxCell>
        </UserObject>
        <mxCell id="AoYNHn_PLi_19imTn6P7-2" value="&lt;h1&gt;GitHub actions&lt;/h1&gt;&lt;p&gt;GitHub Action de déploiement&lt;/p&gt;" style="text;html=1;strokeColor=none;fillColor=none;spacing=5;spacingTop=-20;whiteSpace=wrap;overflow=hidden;rounded=0;comic=1;" parent="1" vertex="1">
          <mxGeometry x="30" y="800" width="190" height="120" as="geometry" />
        </mxCell>
        <object placeholders="1" c4Name="Deploy Kestra" c4Type="GitHubAction" c4Technology="kestra-deployment" c4Description="" label="&lt;font style=&quot;font-size: 16px&quot;&gt;&lt;b&gt;%c4Name%&lt;/b&gt;&lt;/font&gt;&lt;div&gt;[%c4Type%: %c4Technology%]&lt;/div&gt;&lt;br&gt;&lt;div&gt;&lt;font style=&quot;font-size: 11px&quot;&gt;%c4Description%&lt;/font&gt;&lt;/div&gt;" id="AoYNHn_PLi_19imTn6P7-3">
          <mxCell style="rounded=1;whiteSpace=wrap;html=1;labelBackgroundColor=none;fillColor=#63BEF2;fontColor=#ffffff;align=center;arcSize=6;strokeColor=#2086C9;metaEdit=1;resizable=1;points=[[0.25,0,0],[0.5,0,0],[0.75,0,0],[1,0.25,0],[1,0.5,0],[1,0.75,0],[0.75,1,0],[0.5,1,0],[0.25,1,0],[0,0.75,0],[0,0.5,0],[0,0.25,0]];comic=1;" parent="1" vertex="1">
            <mxGeometry x="40" y="890" width="220" height="60" as="geometry" />
          </mxCell>
        </object>
        <object placeholders="1" c4Type="Relationship" id="-HPTuPergMao_D2usLqQ-1">
          <mxCell style="endArrow=blockThin;html=1;fontSize=10;fontColor=#404040;strokeWidth=1;endFill=1;strokeColor=#828282;elbow=vertical;metaEdit=1;endSize=14;startSize=14;jumpStyle=arc;jumpSize=16;rounded=0;edgeStyle=orthogonalEdgeStyle;comic=1;" parent="1" edge="1">
            <mxGeometry width="240" relative="1" as="geometry">
              <mxPoint x="260" y="920" as="sourcePoint" />
              <mxPoint x="370" y="920" as="targetPoint" />
            </mxGeometry>
          </mxCell>
        </object>
        <mxCell id="-HPTuPergMao_D2usLqQ-2" value="on push" style="edgeLabel;html=1;align=center;verticalAlign=middle;resizable=0;points=[];comic=1;" parent="-HPTuPergMao_D2usLqQ-1" vertex="1" connectable="0">
          <mxGeometry x="-0.325" y="2" relative="1" as="geometry">
            <mxPoint as="offset" />
          </mxGeometry>
        </mxCell>
        <object placeholders="1" c4Name="SSH Connect" c4Type="action" c4Technology="appleboy/ssh-action@v0.1.10" c4Description="KEY&#xa;PORT&#xa;USERNAME" label="&lt;font style=&quot;font-size: 16px&quot;&gt;&lt;b&gt;%c4Name%&lt;/b&gt;&lt;/font&gt;&lt;div&gt;[%c4Type%: %c4Technology%]&lt;/div&gt;&lt;br&gt;&lt;div&gt;&lt;font style=&quot;font-size: 11px&quot;&gt;%c4Description%&lt;/font&gt;&lt;/div&gt;" id="-HPTuPergMao_D2usLqQ-3">
          <mxCell style="rounded=1;whiteSpace=wrap;html=1;labelBackgroundColor=none;fillColor=#63BEF2;fontColor=#ffffff;align=center;arcSize=6;strokeColor=#2086C9;metaEdit=1;resizable=1;points=[[0.25,0,0],[0.5,0,0],[0.75,0,0],[1,0.25,0],[1,0.5,0],[1,0.75,0],[0.75,1,0],[0.5,1,0],[0.25,1,0],[0,0.75,0],[0,0.5,0],[0,0.25,0]];comic=1;" parent="1" vertex="1">
            <mxGeometry x="370" y="870" width="220" height="100" as="geometry" />
          </mxCell>
        </object>
        <object placeholders="1" c4Name="passbolt" c4Type="Container" c4Technology="Repository privé" c4Description="Description of container role/responsibility." label="&lt;font style=&quot;font-size: 16px&quot;&gt;&lt;b&gt;%c4Name%&lt;/b&gt;&lt;/font&gt;&lt;div&gt;[%c4Type%: %c4Technology%]&lt;/div&gt;&lt;br&gt;&lt;div&gt;&lt;font style=&quot;font-size: 11px&quot;&gt;&lt;font color=&quot;#E6E6E6&quot;&gt;%c4Description%&lt;/font&gt;&lt;/div&gt;" id="2EDiEQyOCRRHhULVA5Bh-1">
          <mxCell style="rounded=1;whiteSpace=wrap;html=1;fontSize=11;labelBackgroundColor=none;fillColor=#23A2D9;fontColor=#ffffff;align=center;arcSize=10;strokeColor=#0E7DAD;metaEdit=1;resizable=0;points=[[0.25,0,0],[0.5,0,0],[0.75,0,0],[1,0.25,0],[1,0.5,0],[1,0.75,0],[0.75,1,0],[0.5,1,0],[0.25,1,0],[0,0.75,0],[0,0.5,0],[0,0.25,0]];comic=1;" vertex="1" parent="1">
            <mxGeometry x="440" y="480" width="240" height="120" as="geometry" />
          </mxCell>
        </object>
        <UserObject label="github" link="https://github.com/Abbaye11/passbolt" id="2EDiEQyOCRRHhULVA5Bh-2">
          <mxCell style="fontStyle=4;rounded=1;overflow=hidden;spacing=10;fillColor=#d5e8d4;strokeColor=#82b366;comic=1;" vertex="1" parent="1">
            <mxGeometry x="649" y="470" width="65" height="20" as="geometry" />
          </mxCell>
        </UserObject>
      </root>
    </mxGraphModel>
  </diagram>
  <diagram id="t0J_go523E-iaqv47t9X" name="CI-CD">
    <mxGraphModel dx="979" dy="743" grid="1" gridSize="10" guides="1" tooltips="1" connect="1" arrows="1" fold="1" page="1" pageScale="1" pageWidth="827" pageHeight="1169" math="0" shadow="0">
      <root>
        <mxCell id="0" />
        <mxCell id="1" parent="0" />
        <object placeholders="1" c4Name="abbaye11" c4Type="SystemScopeBoundary" c4Application="abbaye11" label="&lt;font style=&quot;font-size: 16px&quot;&gt;&lt;b&gt;&lt;div style=&quot;text-align: left&quot;&gt;%c4Name%&lt;/div&gt;&lt;/b&gt;&lt;/font&gt;&lt;div style=&quot;text-align: left&quot;&gt;[%c4Application%]&lt;/div&gt;" id="c7NzAaIXPTt_GREVkzD--10">
          <mxCell style="rounded=1;fontSize=11;whiteSpace=wrap;html=1;dashed=1;arcSize=20;fillColor=#f5f5f5;strokeColor=#666666;fontColor=#333333;labelBackgroundColor=none;align=left;verticalAlign=bottom;labelBorderColor=none;spacingTop=0;spacing=10;dashPattern=8 4;metaEdit=1;rotatable=0;perimeter=rectanglePerimeter;noLabel=0;labelPadding=0;allowArrows=0;connectable=0;expand=0;recursiveResize=0;editable=1;pointerEvents=0;absoluteArcSize=1;points=[[0.25,0,0],[0.5,0,0],[0.75,0,0],[1,0.25,0],[1,0.5,0],[1,0.75,0],[0.75,1,0],[0.5,1,0],[0.25,1,0],[0,0.75,0],[0,0.5,0],[0,0.25,0]];" parent="1" vertex="1">
            <mxGeometry x="14" y="650" width="800" height="510" as="geometry" />
          </mxCell>
        </object>
        <object placeholders="1" c4Name="seb" c4Type="Person" c4Description="Description of person." label="&lt;font style=&quot;font-size: 16px&quot;&gt;&lt;b&gt;%c4Name%&lt;/b&gt;&lt;/font&gt;&lt;div&gt;[%c4Type%]&lt;/div&gt;&lt;br&gt;&lt;div&gt;&lt;font style=&quot;font-size: 11px&quot;&gt;&lt;font color=&quot;#cccccc&quot;&gt;%c4Description%&lt;/font&gt;&lt;/div&gt;" id="c7NzAaIXPTt_GREVkzD--1">
          <mxCell style="html=1;fontSize=11;dashed=0;whiteSpace=wrap;fillColor=#083F75;strokeColor=#06315C;fontColor=#ffffff;shape=mxgraph.c4.person2;align=center;metaEdit=1;points=[[0.5,0,0],[1,0.5,0],[1,0.75,0],[0.75,1,0],[0.5,1,0],[0.25,1,0],[0,0.75,0],[0,0.5,0]];resizable=1;" parent="1" vertex="1">
            <mxGeometry x="650" y="670" width="140" height="135" as="geometry" />
          </mxCell>
        </object>
        <object placeholders="1" c4Name="Github.com" c4Type="Software System" c4Description="Description of software system." label="&lt;font style=&quot;font-size: 16px&quot;&gt;&lt;b&gt;%c4Name%&lt;/b&gt;&lt;/font&gt;&lt;div&gt;[%c4Type%]&lt;/div&gt;&lt;br&gt;&lt;div&gt;&lt;font style=&quot;font-size: 11px&quot;&gt;&lt;font color=&quot;#cccccc&quot;&gt;%c4Description%&lt;/font&gt;&lt;/div&gt;" id="c7NzAaIXPTt_GREVkzD--2">
          <mxCell style="rounded=1;whiteSpace=wrap;html=1;labelBackgroundColor=none;fillColor=#1061B0;fontColor=#ffffff;align=center;arcSize=10;strokeColor=#0D5091;metaEdit=1;resizable=0;points=[[0.25,0,0],[0.5,0,0],[0.75,0,0],[1,0.25,0],[1,0.5,0],[1,0.75,0],[0.75,1,0],[0.5,1,0],[0.25,1,0],[0,0.75,0],[0,0.5,0],[0,0.25,0]];" parent="1" vertex="1">
            <mxGeometry x="350" y="460" width="240" height="120" as="geometry" />
          </mxCell>
        </object>
        <object placeholders="1" c4Type="Relationship" c4Description="Git push [HTTPS]" label="&lt;div style=&quot;text-align: left&quot;&gt;&lt;div style=&quot;text-align: center&quot;&gt;&lt;b&gt;%c4Description%&lt;/b&gt;&lt;/div&gt;" id="c7NzAaIXPTt_GREVkzD--3">
          <mxCell style="endArrow=blockThin;html=1;fontSize=10;fontColor=#404040;strokeWidth=1;endFill=1;strokeColor=#828282;elbow=vertical;metaEdit=1;endSize=14;startSize=14;jumpStyle=arc;jumpSize=16;rounded=0;entryX=0.75;entryY=1;entryDx=0;entryDy=0;entryPerimeter=0;exitX=0;exitY=0.5;exitDx=0;exitDy=0;exitPerimeter=0;" parent="1" source="c7NzAaIXPTt_GREVkzD--1" target="c7NzAaIXPTt_GREVkzD--2" edge="1">
            <mxGeometry x="-0.3735" y="3" width="240" relative="1" as="geometry">
              <mxPoint x="280" y="530" as="sourcePoint" />
              <mxPoint x="520" y="530" as="targetPoint" />
              <mxPoint as="offset" />
            </mxGeometry>
          </mxCell>
        </object>
        <object placeholders="1" c4Name="Docker engine" c4Type="Software System" c4Description="Docker engine" label="&lt;font style=&quot;font-size: 16px&quot;&gt;&lt;b&gt;%c4Name%&lt;/b&gt;&lt;/font&gt;&lt;div&gt;[%c4Type%]&lt;/div&gt;&lt;br&gt;&lt;div&gt;&lt;font style=&quot;font-size: 11px&quot;&gt;&lt;font color=&quot;#cccccc&quot;&gt;%c4Description%&lt;/font&gt;&lt;/div&gt;" id="c7NzAaIXPTt_GREVkzD--4">
          <mxCell style="rounded=1;whiteSpace=wrap;html=1;labelBackgroundColor=none;fillColor=#1061B0;fontColor=#ffffff;align=center;arcSize=10;strokeColor=#0D5091;metaEdit=1;resizable=0;points=[[0.25,0,0],[0.5,0,0],[0.75,0,0],[1,0.25,0],[1,0.5,0],[1,0.75,0],[0.75,1,0],[0.5,1,0],[0.25,1,0],[0,0.75,0],[0,0.5,0],[0,0.25,0]];" parent="1" vertex="1">
            <mxGeometry x="70" y="722.5" width="240" height="120" as="geometry" />
          </mxCell>
        </object>
        <object placeholders="1" c4Type="Relationship" c4Description="Github actions [SSH]" label="&lt;div style=&quot;text-align: left&quot;&gt;&lt;div style=&quot;text-align: center&quot;&gt;&lt;b&gt;%c4Description%&lt;/b&gt;&lt;/div&gt;" id="c7NzAaIXPTt_GREVkzD--5">
          <mxCell style="endArrow=blockThin;html=1;fontSize=10;fontColor=#404040;strokeWidth=1;endFill=1;strokeColor=#828282;elbow=vertical;metaEdit=1;endSize=14;startSize=14;jumpStyle=arc;jumpSize=16;rounded=0;entryX=0.639;entryY=0.1;entryDx=0;entryDy=0;entryPerimeter=0;exitX=0.25;exitY=1;exitDx=0;exitDy=0;exitPerimeter=0;" parent="1" source="c7NzAaIXPTt_GREVkzD--2" target="l06OghSRvCOO1gPJnQLL-1" edge="1">
            <mxGeometry x="-0.5871" y="6" width="240" relative="1" as="geometry">
              <mxPoint x="590" y="640" as="sourcePoint" />
              <mxPoint x="640" y="630" as="targetPoint" />
              <mxPoint y="-1" as="offset" />
            </mxGeometry>
          </mxCell>
        </object>
        <object placeholders="1" c4Name="kestra" c4Type="Software System" c4Description="Description of software system." label="&lt;font style=&quot;font-size: 16px&quot;&gt;&lt;b&gt;%c4Name%&lt;/b&gt;&lt;/font&gt;&lt;div&gt;[%c4Type%]&lt;/div&gt;&lt;br&gt;&lt;div&gt;&lt;font style=&quot;font-size: 11px&quot;&gt;&lt;font color=&quot;#cccccc&quot;&gt;%c4Description%&lt;/font&gt;&lt;/div&gt;" id="c7NzAaIXPTt_GREVkzD--6">
          <mxCell style="rounded=1;whiteSpace=wrap;html=1;labelBackgroundColor=none;fillColor=#1061B0;fontColor=#ffffff;align=center;arcSize=10;strokeColor=#0D5091;metaEdit=1;resizable=0;points=[[0.25,0,0],[0.5,0,0],[0.75,0,0],[1,0.25,0],[1,0.5,0],[1,0.75,0],[0.75,1,0],[0.5,1,0],[0.25,1,0],[0,0.75,0],[0,0.5,0],[0,0.25,0]];" parent="1" vertex="1">
            <mxGeometry x="340" y="927.5" width="240" height="120" as="geometry" />
          </mxCell>
        </object>
        <object placeholders="1" c4Name="nginx-reverse-proxy" c4Type="Software System" c4Description="Description of software system." label="&lt;font style=&quot;font-size: 16px&quot;&gt;&lt;b&gt;%c4Name%&lt;/b&gt;&lt;/font&gt;&lt;div&gt;[%c4Type%]&lt;/div&gt;&lt;br&gt;&lt;div&gt;&lt;font style=&quot;font-size: 11px&quot;&gt;&lt;font color=&quot;#cccccc&quot;&gt;%c4Description%&lt;/font&gt;&lt;/div&gt;" id="c7NzAaIXPTt_GREVkzD--7">
          <mxCell style="rounded=1;whiteSpace=wrap;html=1;labelBackgroundColor=none;fillColor=#1061B0;fontColor=#ffffff;align=center;arcSize=10;strokeColor=#0D5091;metaEdit=1;resizable=0;points=[[0.25,0,0],[0.5,0,0],[0.75,0,0],[1,0.25,0],[1,0.5,0],[1,0.75,0],[0.75,1,0],[0.5,1,0],[0.25,1,0],[0,0.75,0],[0,0.5,0],[0,0.25,0]];" parent="1" vertex="1">
            <mxGeometry x="70" y="927.5" width="240" height="120" as="geometry" />
          </mxCell>
        </object>
        <object placeholders="1" c4Type="Relationship" c4Description="e.g. Visits pages" label="&lt;div style=&quot;text-align: left&quot;&gt;&lt;div style=&quot;text-align: center&quot;&gt;&lt;b&gt;%c4Description%&lt;/b&gt;&lt;/div&gt;" id="c7NzAaIXPTt_GREVkzD--8">
          <mxCell style="endArrow=blockThin;html=1;fontSize=10;fontColor=#404040;strokeWidth=1;endFill=1;strokeColor=#828282;elbow=vertical;metaEdit=1;endSize=14;startSize=14;jumpStyle=arc;jumpSize=16;rounded=0;" parent="1" source="c7NzAaIXPTt_GREVkzD--4" target="c7NzAaIXPTt_GREVkzD--7" edge="1">
            <mxGeometry width="240" relative="1" as="geometry">
              <mxPoint x="410" y="777.5" as="sourcePoint" />
              <mxPoint x="650" y="777.5" as="targetPoint" />
            </mxGeometry>
          </mxCell>
        </object>
        <object placeholders="1" c4Type="Relationship" c4Description="e.g. Visits pages" label="&lt;div style=&quot;text-align: left&quot;&gt;&lt;div style=&quot;text-align: center&quot;&gt;&lt;b&gt;%c4Description%&lt;/b&gt;&lt;/div&gt;" id="c7NzAaIXPTt_GREVkzD--9">
          <mxCell style="endArrow=blockThin;html=1;fontSize=10;fontColor=#404040;strokeWidth=1;endFill=1;strokeColor=#828282;elbow=vertical;metaEdit=1;endSize=14;startSize=14;jumpStyle=arc;jumpSize=16;rounded=0;" parent="1" source="c7NzAaIXPTt_GREVkzD--4" target="c7NzAaIXPTt_GREVkzD--6" edge="1">
            <mxGeometry width="240" relative="1" as="geometry">
              <mxPoint x="410" y="777.5" as="sourcePoint" />
              <mxPoint x="650" y="777.5" as="targetPoint" />
            </mxGeometry>
          </mxCell>
        </object>
        <object placeholders="1" c4Name="zephyr.abbaye11.local" c4Type="ContainerScopeBoundary" c4Application="Serveur" label="&lt;font style=&quot;font-size: 16px&quot;&gt;&lt;b&gt;&lt;div style=&quot;text-align: left&quot;&gt;%c4Name%&lt;/div&gt;&lt;/b&gt;&lt;/font&gt;&lt;div style=&quot;text-align: left&quot;&gt;[%c4Application%]&lt;/div&gt;" id="l06OghSRvCOO1gPJnQLL-3">
          <mxCell style="rounded=1;fontSize=11;whiteSpace=wrap;html=1;dashed=1;arcSize=20;fillColor=none;strokeColor=#666666;fontColor=#333333;labelBackgroundColor=none;align=left;verticalAlign=bottom;labelBorderColor=none;spacingTop=0;spacing=10;dashPattern=8 4;metaEdit=1;rotatable=0;perimeter=rectanglePerimeter;noLabel=0;labelPadding=0;allowArrows=0;connectable=0;expand=0;recursiveResize=0;editable=1;pointerEvents=0;absoluteArcSize=1;points=[[0.25,0,0],[0.5,0,0],[0.75,0,0],[1,0.25,0],[1,0.5,0],[1,0.75,0],[0.75,1,0],[0.5,1,0],[0.25,1,0],[0,0.75,0],[0,0.5,0],[0,0.25,0]];strokeWidth=2;" parent="1" vertex="1">
            <mxGeometry x="60" y="710" width="530" height="390" as="geometry" />
          </mxCell>
        </object>
        <mxCell id="l06OghSRvCOO1gPJnQLL-1" value="TCP:22" style="shape=parallelogram;perimeter=parallelogramPerimeter;whiteSpace=wrap;html=1;fixedSize=1;shadow=1;glass=0;fontFamily=Comic Sans MS;fontSize=8;fontStyle=1" parent="1" vertex="1">
          <mxGeometry x="145" y="700" width="90" height="20" as="geometry" />
        </mxCell>
      </root>
    </mxGraphModel>
  </diagram>
  <diagram id="6Q__0xaw-6w8IUyn_6xx" name="réseau">
    <mxGraphModel dx="979" dy="743" grid="1" gridSize="10" guides="1" tooltips="1" connect="1" arrows="1" fold="1" page="1" pageScale="1" pageWidth="827" pageHeight="1169" math="0" shadow="0">
      <root>
        <mxCell id="0" />
        <mxCell id="1" parent="0" />
        <object placeholders="1" c4Name="Swisscom Internet-box" c4Type="Software System" c4Description="Description of software system." label="&lt;font style=&quot;font-size: 16px&quot;&gt;&lt;b&gt;%c4Name%&lt;/b&gt;&lt;/font&gt;&lt;div&gt;[%c4Type%]&lt;/div&gt;&lt;br&gt;&lt;div&gt;&lt;font style=&quot;font-size: 11px&quot;&gt;&lt;font color=&quot;#cccccc&quot;&gt;%c4Description%&lt;/font&gt;&lt;/div&gt;" id="RXaFuY74gmt9VTlXgylu-1">
          <mxCell style="rounded=1;whiteSpace=wrap;html=1;labelBackgroundColor=none;fillColor=#1061B0;fontColor=#ffffff;align=center;arcSize=10;strokeColor=#0D5091;metaEdit=1;resizable=0;points=[[0.25,0,0],[0.5,0,0],[0.75,0,0],[1,0.25,0],[1,0.5,0],[1,0.75,0],[0.75,1,0],[0.5,1,0],[0.25,1,0],[0,0.75,0],[0,0.5,0],[0,0.25,0]];" parent="1" vertex="1">
            <mxGeometry x="230" y="190" width="240" height="120" as="geometry" />
          </mxCell>
        </object>
        <object placeholders="1" c4Name="System name" c4Type="SystemScopeBoundary" c4Application="Software System" label="&lt;font style=&quot;font-size: 16px&quot;&gt;&lt;b&gt;&lt;div style=&quot;text-align: left&quot;&gt;%c4Name%&lt;/div&gt;&lt;/b&gt;&lt;/font&gt;&lt;div style=&quot;text-align: left&quot;&gt;[%c4Application%]&lt;/div&gt;" id="RXaFuY74gmt9VTlXgylu-2">
          <mxCell style="rounded=1;fontSize=11;whiteSpace=wrap;html=1;dashed=1;arcSize=20;fillColor=none;strokeColor=#666666;fontColor=#333333;labelBackgroundColor=none;align=left;verticalAlign=bottom;labelBorderColor=none;spacingTop=0;spacing=10;dashPattern=8 4;metaEdit=1;rotatable=0;perimeter=rectanglePerimeter;noLabel=0;labelPadding=0;allowArrows=0;connectable=0;expand=0;recursiveResize=0;editable=1;pointerEvents=0;absoluteArcSize=1;points=[[0.25,0,0],[0.5,0,0],[0.75,0,0],[1,0.25,0],[1,0.5,0],[1,0.75,0],[0.75,1,0],[0.5,1,0],[0.25,1,0],[0,0.75,0],[0,0.5,0],[0,0.25,0]];" parent="1" vertex="1">
            <mxGeometry x="60" y="250" width="620" height="290" as="geometry" />
          </mxCell>
        </object>
        <object placeholders="1" c4Name="VPN [IKEv2]" c4Type="Component" c4Technology="abbaye11.internet-box.ch" c4Description="" label="&lt;font style=&quot;font-size: 16px&quot;&gt;&lt;b&gt;%c4Name%&lt;/b&gt;&lt;/font&gt;&lt;div&gt;[%c4Type%: %c4Technology%]&lt;/div&gt;&lt;br&gt;&lt;div&gt;&lt;font style=&quot;font-size: 11px&quot;&gt;%c4Description%&lt;/font&gt;&lt;/div&gt;" id="RXaFuY74gmt9VTlXgylu-3">
          <mxCell style="rounded=1;whiteSpace=wrap;html=1;labelBackgroundColor=none;fillColor=#63BEF2;fontColor=#ffffff;align=center;arcSize=6;strokeColor=#2086C9;metaEdit=1;resizable=1;points=[[0.25,0,0],[0.5,0,0],[0.75,0,0],[1,0.25,0],[1,0.5,0],[1,0.75,0],[0.75,1,0],[0.5,1,0],[0.25,1,0],[0,0.75,0],[0,0.5,0],[0,0.25,0]];" parent="1" vertex="1">
            <mxGeometry x="90" y="60" width="240" height="70" as="geometry" />
          </mxCell>
        </object>
        <object placeholders="1" c4Name="Port Redirect" c4Type="Component" c4Technology="22, 80, 443" c4Description="" label="&lt;font style=&quot;font-size: 16px&quot;&gt;&lt;b&gt;%c4Name%&lt;/b&gt;&lt;/font&gt;&lt;div&gt;[%c4Type%: %c4Technology%]&lt;/div&gt;&lt;br&gt;&lt;div&gt;&lt;font style=&quot;font-size: 11px&quot;&gt;%c4Description%&lt;/font&gt;&lt;/div&gt;" id="RXaFuY74gmt9VTlXgylu-4">
          <mxCell style="rounded=1;whiteSpace=wrap;html=1;labelBackgroundColor=none;fillColor=#63BEF2;fontColor=#ffffff;align=center;arcSize=6;strokeColor=#2086C9;metaEdit=1;resizable=1;points=[[0.25,0,0],[0.5,0,0],[0.75,0,0],[1,0.25,0],[1,0.5,0],[1,0.75,0],[0.75,1,0],[0.5,1,0],[0.25,1,0],[0,0.75,0],[0,0.5,0],[0,0.25,0]];" parent="1" vertex="1">
            <mxGeometry x="414" y="60" width="240" height="70" as="geometry" />
          </mxCell>
        </object>
        <object placeholders="1" c4Name="Zephyr" c4Type="Software System" c4Description="Description of software system." label="&lt;font style=&quot;font-size: 16px&quot;&gt;&lt;b&gt;%c4Name%&lt;/b&gt;&lt;/font&gt;&lt;div&gt;[%c4Type%]&lt;/div&gt;&lt;br&gt;&lt;div&gt;&lt;font style=&quot;font-size: 11px&quot;&gt;&lt;font color=&quot;#cccccc&quot;&gt;%c4Description%&lt;/font&gt;&lt;/div&gt;" id="RXaFuY74gmt9VTlXgylu-5">
          <mxCell style="rounded=1;whiteSpace=wrap;html=1;labelBackgroundColor=none;fillColor=#1061B0;fontColor=#ffffff;align=center;arcSize=10;strokeColor=#0D5091;metaEdit=1;resizable=0;points=[[0.25,0,0],[0.5,0,0],[0.75,0,0],[1,0.25,0],[1,0.5,0],[1,0.75,0],[0.75,1,0],[0.5,1,0],[0.25,1,0],[0,0.75,0],[0,0.5,0],[0,0.25,0]];" parent="1" vertex="1">
            <mxGeometry x="414" y="390" width="240" height="120" as="geometry" />
          </mxCell>
        </object>
        <object placeholders="1" c4Type="Relationship" id="RXaFuY74gmt9VTlXgylu-6">
          <mxCell style="endArrow=blockThin;html=1;fontSize=10;fontColor=#404040;strokeWidth=1;endFill=1;strokeColor=#828282;elbow=vertical;metaEdit=1;endSize=14;startSize=14;jumpStyle=arc;jumpSize=16;rounded=0;entryX=0.5;entryY=0;entryDx=0;entryDy=0;entryPerimeter=0;" parent="1" source="RXaFuY74gmt9VTlXgylu-4" target="RXaFuY74gmt9VTlXgylu-5" edge="1">
            <mxGeometry width="240" relative="1" as="geometry">
              <mxPoint x="260" y="310" as="sourcePoint" />
              <mxPoint x="500" y="310" as="targetPoint" />
            </mxGeometry>
          </mxCell>
        </object>
        <object placeholders="1" c4Type="Relationship" id="RXaFuY74gmt9VTlXgylu-7">
          <mxCell style="endArrow=blockThin;html=1;fontSize=10;fontColor=#404040;strokeWidth=1;endFill=1;strokeColor=#828282;elbow=vertical;metaEdit=1;endSize=14;startSize=14;jumpStyle=arc;jumpSize=16;rounded=0;exitX=0.458;exitY=1.029;exitDx=0;exitDy=0;exitPerimeter=0;entryX=0.25;entryY=0;entryDx=0;entryDy=0;entryPerimeter=0;" parent="1" source="RXaFuY74gmt9VTlXgylu-3" target="RXaFuY74gmt9VTlXgylu-1" edge="1">
            <mxGeometry width="240" relative="1" as="geometry">
              <mxPoint x="260" y="220" as="sourcePoint" />
              <mxPoint x="500" y="220" as="targetPoint" />
            </mxGeometry>
          </mxCell>
        </object>
        <object placeholders="1" c4Type="Relationship" id="RXaFuY74gmt9VTlXgylu-8">
          <mxCell style="endArrow=blockThin;html=1;fontSize=10;fontColor=#404040;strokeWidth=1;endFill=1;strokeColor=#828282;elbow=vertical;metaEdit=1;endSize=14;startSize=14;jumpStyle=arc;jumpSize=16;rounded=0;exitX=0.25;exitY=1;exitDx=0;exitDy=0;exitPerimeter=0;" parent="1" source="RXaFuY74gmt9VTlXgylu-4" target="RXaFuY74gmt9VTlXgylu-1" edge="1">
            <mxGeometry width="240" relative="1" as="geometry">
              <mxPoint x="260" y="220" as="sourcePoint" />
              <mxPoint x="500" y="220" as="targetPoint" />
            </mxGeometry>
          </mxCell>
        </object>
      </root>
    </mxGraphModel>
  </diagram>
  <diagram id="QAo9AFxddMRDUS73TbKb" name="minio">
    <mxGraphModel dx="979" dy="743" grid="1" gridSize="10" guides="1" tooltips="1" connect="1" arrows="1" fold="1" page="1" pageScale="1" pageWidth="827" pageHeight="1169" math="0" shadow="0">
      <root>
        <mxCell id="0" />
        <mxCell id="1" parent="0" />
        <object placeholders="1" c4Name="Minio" c4Type="Container" c4Technology="sebchevre/minio-nr" c4Description="Minio rootless image from bitnami base" label="&lt;font style=&quot;font-size: 16px&quot;&gt;&lt;b&gt;%c4Name%&lt;/b&gt;&lt;/font&gt;&lt;div&gt;[%c4Type%: %c4Technology%]&lt;/div&gt;&lt;br&gt;&lt;div&gt;&lt;font style=&quot;font-size: 11px&quot;&gt;&lt;font color=&quot;#E6E6E6&quot;&gt;%c4Description%&lt;/font&gt;&lt;/div&gt;" id="0qjMoJXLEL0BAwuTR5rh-1">
          <mxCell style="rounded=1;whiteSpace=wrap;html=1;fontSize=11;labelBackgroundColor=none;fillColor=#23A2D9;fontColor=#ffffff;align=center;arcSize=10;strokeColor=#0E7DAD;metaEdit=1;resizable=0;points=[[0.25,0,0],[0.5,0,0],[0.75,0,0],[1,0.25,0],[1,0.5,0],[1,0.75,0],[0.75,1,0],[0.5,1,0],[0.25,1,0],[0,0.75,0],[0,0.5,0],[0,0.25,0]];comic=1;" parent="1" vertex="1">
            <mxGeometry x="30" y="110" width="240" height="120" as="geometry" />
          </mxCell>
        </object>
        <object placeholders="1" c4Name="Minio" c4Type="Container" c4Technology="bitnami/minio" c4Description="Binami minio base image" label="&lt;font style=&quot;font-size: 16px&quot;&gt;&lt;b&gt;%c4Name%&lt;/b&gt;&lt;/font&gt;&lt;div&gt;[%c4Type%: %c4Technology%]&lt;/div&gt;&lt;br&gt;&lt;div&gt;&lt;font style=&quot;font-size: 11px&quot;&gt;&lt;font&gt;%c4Description%&lt;/font&gt;&lt;/font&gt;&lt;/div&gt;" id="0qjMoJXLEL0BAwuTR5rh-2">
          <mxCell style="rounded=1;whiteSpace=wrap;html=1;fontSize=11;labelBackgroundColor=none;fillColor=#f5f5f5;fontColor=#000000;align=center;arcSize=10;strokeColor=#666666;metaEdit=1;resizable=0;points=[[0.25,0,0],[0.5,0,0],[0.75,0,0],[1,0.25,0],[1,0.5,0],[1,0.75,0],[0.75,1,0],[0.5,1,0],[0.25,1,0],[0,0.75,0],[0,0.5,0],[0,0.25,0]];comic=1;" parent="1" vertex="1">
            <mxGeometry x="30" y="320" width="240" height="120" as="geometry" />
          </mxCell>
        </object>
        <object placeholders="1" c4Type="Relationship" id="0qjMoJXLEL0BAwuTR5rh-3">
          <mxCell style="endArrow=blockThin;html=1;fontSize=10;fontColor=#404040;strokeWidth=1;endFill=1;strokeColor=#828282;elbow=vertical;metaEdit=1;endSize=14;startSize=14;jumpStyle=arc;jumpSize=16;rounded=0;exitX=0.5;exitY=0;exitDx=0;exitDy=0;exitPerimeter=0;" parent="1" source="0qjMoJXLEL0BAwuTR5rh-2" target="0qjMoJXLEL0BAwuTR5rh-1" edge="1">
            <mxGeometry width="240" relative="1" as="geometry">
              <mxPoint x="30" y="120" as="sourcePoint" />
              <mxPoint x="150" y="240" as="targetPoint" />
            </mxGeometry>
          </mxCell>
        </object>
        <UserObject label="dockerhub" link="https://hub.docker.com/repository/docker/sebchevre/minio-nr/general" id="dWxcjfUqECjkHsa77xDg-3">
          <mxCell style="fontStyle=4;rounded=1;overflow=hidden;spacing=10;shadow=1;fillColor=#d5e8d4;strokeColor=#82b366;" parent="1" vertex="1">
            <mxGeometry x="220" y="100" width="80" height="20" as="geometry" />
          </mxCell>
        </UserObject>
        <UserObject label="gihub" link="https://github.com/Abbaye11/minio-nr" id="dWxcjfUqECjkHsa77xDg-5">
          <mxCell style="fontStyle=4;rounded=1;overflow=hidden;spacing=10;shadow=1;fillColor=#d5e8d4;strokeColor=#82b366;" parent="1" vertex="1">
            <mxGeometry x="220" y="130" width="80" height="20" as="geometry" />
          </mxCell>
        </UserObject>
        <mxCell id="vOlYYKamGL4rlGcYlIil-1" value="&lt;h1&gt;Minio&lt;/h1&gt;&lt;p&gt;Image minio&lt;/p&gt;" style="text;html=1;strokeColor=none;fillColor=none;spacing=5;spacingTop=-20;whiteSpace=wrap;overflow=hidden;rounded=0;" parent="1" vertex="1">
          <mxGeometry x="30" y="20" width="340" height="80" as="geometry" />
        </mxCell>
        <mxCell id="vOlYYKamGL4rlGcYlIil-2" value="" style="endArrow=none;dashed=1;html=1;rounded=0;" parent="1" edge="1">
          <mxGeometry width="50" height="50" relative="1" as="geometry">
            <mxPoint x="390" y="640" as="sourcePoint" />
            <mxPoint x="390" y="30" as="targetPoint" />
          </mxGeometry>
        </mxCell>
        <mxCell id="vOlYYKamGL4rlGcYlIil-3" value="&lt;h1&gt;Déploiement Minio&lt;/h1&gt;&lt;p&gt;Docker compose&lt;/p&gt;" style="text;html=1;strokeColor=none;fillColor=none;spacing=5;spacingTop=-20;whiteSpace=wrap;overflow=hidden;rounded=0;" parent="1" vertex="1">
          <mxGeometry x="470" y="20" width="350" height="80" as="geometry" />
        </mxCell>
        <object placeholders="1" c4Name="Minio client [mc]" c4Type="Service: create_kestra_bucket" c4Description="Description of software system." label="&lt;font style=&quot;font-size: 16px&quot;&gt;&lt;b&gt;%c4Name%&lt;/b&gt;&lt;/font&gt;&lt;div&gt;[%c4Type%]&lt;/div&gt;&lt;br&gt;&lt;div&gt;&lt;font style=&quot;font-size: 11px&quot;&gt;&lt;font color=&quot;#cccccc&quot;&gt;%c4Description%&lt;/font&gt;&lt;/div&gt;" id="vOlYYKamGL4rlGcYlIil-4">
          <mxCell style="rounded=1;whiteSpace=wrap;html=1;labelBackgroundColor=none;fillColor=#1061B0;fontColor=#ffffff;align=center;arcSize=10;strokeColor=#0D5091;metaEdit=1;resizable=0;points=[[0.25,0,0],[0.5,0,0],[0.75,0,0],[1,0.25,0],[1,0.5,0],[1,0.75,0],[0.75,1,0],[0.5,1,0],[0.25,1,0],[0,0.75,0],[0,0.5,0],[0,0.25,0]];" parent="1" vertex="1">
            <mxGeometry x="480" y="400" width="240" height="120" as="geometry" />
          </mxCell>
        </object>
        <object placeholders="1" c4Name="Minio rootless" c4Type="Service: minio" c4Description="Description of software system." label="&lt;font style=&quot;font-size: 16px&quot;&gt;&lt;b&gt;%c4Name%&lt;/b&gt;&lt;/font&gt;&lt;div&gt;[%c4Type%]&lt;/div&gt;&lt;br&gt;&lt;div&gt;&lt;font style=&quot;font-size: 11px&quot;&gt;&lt;font color=&quot;#cccccc&quot;&gt;%c4Description%&lt;/font&gt;&lt;/div&gt;" id="vOlYYKamGL4rlGcYlIil-5">
          <mxCell style="rounded=1;whiteSpace=wrap;html=1;labelBackgroundColor=none;fillColor=#1061B0;fontColor=#ffffff;align=center;arcSize=10;strokeColor=#0D5091;metaEdit=1;resizable=0;points=[[0.25,0,0],[0.5,0,0],[0.75,0,0],[1,0.25,0],[1,0.5,0],[1,0.75,0],[0.75,1,0],[0.5,1,0],[0.25,1,0],[0,0.75,0],[0,0.5,0],[0,0.25,0]];" parent="1" vertex="1">
            <mxGeometry x="480" y="220" width="240" height="120" as="geometry" />
          </mxCell>
        </object>
        <object placeholders="1" c4Name="Minio-client" c4Type="Container" c4Technology="bitnami/minio-client" c4Description="Binami minio client image" label="&lt;font style=&quot;font-size: 16px&quot;&gt;&lt;b&gt;%c4Name%&lt;/b&gt;&lt;/font&gt;&lt;div&gt;[%c4Type%: %c4Technology%]&lt;/div&gt;&lt;br&gt;&lt;div&gt;&lt;font style=&quot;font-size: 11px&quot;&gt;&lt;font&gt;%c4Description%&lt;/font&gt;&lt;/font&gt;&lt;/div&gt;" id="vOlYYKamGL4rlGcYlIil-6">
          <mxCell style="rounded=1;whiteSpace=wrap;html=1;fontSize=11;labelBackgroundColor=none;fillColor=#f5f5f5;fontColor=#000000;align=center;arcSize=10;strokeColor=#666666;metaEdit=1;resizable=0;points=[[0.25,0,0],[0.5,0,0],[0.75,0,0],[1,0.25,0],[1,0.5,0],[1,0.75,0],[0.75,1,0],[0.5,1,0],[0.25,1,0],[0,0.75,0],[0,0.5,0],[0,0.25,0]];comic=1;" parent="1" vertex="1">
            <mxGeometry x="30" y="510" width="240" height="120" as="geometry" />
          </mxCell>
        </object>
        <UserObject label="gihub" link="https://github.com/Abbaye11/minio-nr" id="vOlYYKamGL4rlGcYlIil-7">
          <mxCell style="fontStyle=4;rounded=1;overflow=hidden;spacing=10;shadow=1;fillColor=#d5e8d4;strokeColor=#82b366;" parent="1" vertex="1">
            <mxGeometry x="710" y="100" width="80" height="20" as="geometry" />
          </mxCell>
        </UserObject>
        <object placeholders="1" c4Type="Relationship" id="vOlYYKamGL4rlGcYlIil-8">
          <mxCell style="endArrow=blockThin;html=1;fontSize=10;fontColor=#404040;strokeWidth=1;endFill=1;strokeColor=#828282;elbow=vertical;metaEdit=1;endSize=14;startSize=14;jumpStyle=arc;jumpSize=16;rounded=0;edgeStyle=orthogonalEdgeStyle;exitX=0.5;exitY=0;exitDx=0;exitDy=0;exitPerimeter=0;" parent="1" source="vOlYYKamGL4rlGcYlIil-4" target="vOlYYKamGL4rlGcYlIil-5" edge="1">
            <mxGeometry width="240" relative="1" as="geometry">
              <mxPoint x="260" y="450" as="sourcePoint" />
              <mxPoint x="500" y="450" as="targetPoint" />
            </mxGeometry>
          </mxCell>
        </object>
        <object placeholders="1" c4Type="Relationship" id="vOlYYKamGL4rlGcYlIil-9">
          <mxCell style="endArrow=blockThin;html=1;fontSize=10;fontColor=#404040;strokeWidth=2;endFill=1;strokeColor=#828282;elbow=vertical;metaEdit=1;endSize=14;startSize=14;jumpStyle=none;jumpSize=16;rounded=0;exitX=0;exitY=0.5;exitDx=0;exitDy=0;exitPerimeter=0;entryX=1;entryY=0.75;entryDx=0;entryDy=0;entryPerimeter=0;" parent="1" source="vOlYYKamGL4rlGcYlIil-5" target="0qjMoJXLEL0BAwuTR5rh-1" edge="1">
            <mxGeometry width="240" relative="1" as="geometry">
              <mxPoint x="280" y="390" as="sourcePoint" />
              <mxPoint x="520" y="390" as="targetPoint" />
            </mxGeometry>
          </mxCell>
        </object>
        <object placeholders="1" c4Type="Relationship" id="vOlYYKamGL4rlGcYlIil-10">
          <mxCell style="endArrow=blockThin;html=1;fontSize=10;fontColor=#404040;strokeWidth=2;endFill=1;strokeColor=#828282;elbow=vertical;metaEdit=1;endSize=14;startSize=14;jumpStyle=none;jumpSize=16;rounded=0;exitX=0;exitY=0.5;exitDx=0;exitDy=0;exitPerimeter=0;entryX=1;entryY=0.5;entryDx=0;entryDy=0;entryPerimeter=0;" parent="1" source="vOlYYKamGL4rlGcYlIil-4" target="vOlYYKamGL4rlGcYlIil-6" edge="1">
            <mxGeometry width="240" relative="1" as="geometry">
              <mxPoint x="490" y="290" as="sourcePoint" />
              <mxPoint x="280" y="210" as="targetPoint" />
            </mxGeometry>
          </mxCell>
        </object>
      </root>
    </mxGraphModel>
  </diagram>
  <diagram id="N0hm5DWWNTvU8J0e7UKy" name="Page-7">
    <mxGraphModel dx="979" dy="743" grid="1" gridSize="10" guides="1" tooltips="1" connect="1" arrows="1" fold="1" page="1" pageScale="1" pageWidth="827" pageHeight="1169" math="0" shadow="0">
      <root>
        <mxCell id="0" />
        <mxCell id="1" parent="0" />
        <mxCell id="LqJ739DfYyRdjcs6h1RO-1" value="&lt;h1&gt;Docker Hub&lt;/h1&gt;&lt;p&gt;images custom&lt;/p&gt;" style="text;html=1;spacing=5;spacingTop=-20;whiteSpace=wrap;overflow=hidden;rounded=0;" parent="1" vertex="1">
          <mxGeometry x="40" y="40" width="190" height="120" as="geometry" />
        </mxCell>
        <object placeholders="1" c4Name="sebchevre/python-kestra:0.0.1" c4Type="Image OCI" c4Technology="Docker" c4Description="Image docker avec python et lib&#39;s nécessaires" label="&lt;font style=&quot;font-size: 16px&quot;&gt;&lt;b&gt;%c4Name%&lt;/b&gt;&lt;/font&gt;&lt;div&gt;[%c4Type%: %c4Technology%]&lt;/div&gt;&lt;br&gt;&lt;div&gt;&lt;font style=&quot;font-size: 11px&quot;&gt;&lt;font color=&quot;#E6E6E6&quot;&gt;%c4Description%&lt;/font&gt;&lt;/div&gt;" id="LqJ739DfYyRdjcs6h1RO-2">
          <mxCell style="rounded=1;whiteSpace=wrap;html=1;fontSize=11;labelBackgroundColor=none;fillColor=#23A2D9;fontColor=#ffffff;align=center;arcSize=10;strokeColor=#0E7DAD;metaEdit=1;resizable=1;points=[[0.25,0,0],[0.5,0,0],[0.75,0,0],[1,0.25,0],[1,0.5,0],[1,0.75,0],[0.75,1,0],[0.5,1,0],[0.25,1,0],[0,0.75,0],[0,0.5,0],[0,0.25,0]];" parent="1" vertex="1">
            <mxGeometry x="130" y="180" width="290" height="130" as="geometry" />
          </mxCell>
        </object>
        <UserObject label="github" link="https://github.com/SebChevre-Kestra/python-kestra" id="bu0n-Abg-zfk_bd7S4Dy-2">
          <mxCell style="fontStyle=4;rounded=1;overflow=hidden;spacing=10;fillColor=#d5e8d4;strokeColor=#82b366;comic=1;" parent="1" vertex="1">
            <mxGeometry x="414" y="170" width="65" height="20" as="geometry" />
          </mxCell>
        </UserObject>
        <UserObject label="DockerHub" link="https://hub.docker.com/repository/docker/sebchevre/python-kestra/general" id="bu0n-Abg-zfk_bd7S4Dy-3">
          <mxCell style="fontStyle=4;rounded=1;overflow=hidden;spacing=10;fillColor=#dae8fc;strokeColor=#6c8ebf;comic=1;" parent="1" vertex="1">
            <mxGeometry x="414" y="200" width="65" height="20" as="geometry" />
          </mxCell>
        </UserObject>
      </root>
    </mxGraphModel>
  </diagram>
</mxfile>
